<svg enable-background="new 0 0 653 669" viewBox="0 0 653 669" xmlns="http://www.w3.org/2000/svg"><path d="m2.3 2h114.7v86.7h-114.7z" fill="#fff" stroke="#13007c" stroke-miterlimit="10"/><g fill="#13007c"><path d="m19.8 21.3-1-1.8c-.4-.7-.7-1.1-.9-1.6-.2.5-.5.9-.9 1.6l-1 1.8h-1.2l2.5-4.1-2.4-4h1.2l1.1 1.9c.3.5.5.9.7 1.4.2-.5.4-.9.7-1.4l1.1-1.9h1.3l-2.5 3.9 2.5 4.1h-1.2z"/><path d="m29 17.8c-.1-1.1-.1-2.5-.1-3.5-.3.9-.6 2-1 3.1l-1.4 3.9h-.8l-1.3-3.9c-.4-1.1-.7-2.2-.9-3.1 0 1-.1 2.4-.2 3.6l-.3 3.4h-1l.6-8.1h1.3l1.4 3.9c.3 1 .6 1.9.8 2.7.2-.8.5-1.7.9-2.7l1.4-3.9h1.3l.5 8.1h-1z"/><path d="m31.9 13.2h1v7.2h3.5v.9h-4.5z"/><path d="m38.6 13.2v3.4h3.9v-3.4h1.1v8.1h-1.1v-3.8h-3.9v3.8h-1v-8.1z"/><path d="m46.8 13.9v1.7h1.5v.8h-1.5v3.1c0 .7.2 1.1.8 1.1.3 0 .5 0 .6-.1v.8c-.2.1-.5.1-.9.1-.5 0-.9-.2-1.1-.4-.3-.3-.4-.8-.4-1.5v-3.2h-.9v-.8h.9v-1.4z"/><path d="m50.8 13.9v1.7h1.5v.8h-1.5v3.1c0 .7.2 1.1.8 1.1.3 0 .5 0 .6-.1v.8c-.2.1-.5.1-.9.1-.5 0-.9-.2-1.1-.4-.3-.3-.4-.8-.4-1.5v-3.2h-.9v-.8h.9v-1.4z"/><path d="m53.5 17.4c0-.7 0-1.3 0-1.9h.9v1c.4-.7 1.1-1.1 2.1-1.1 1.4 0 2.5 1.2 2.5 3 0 2.1-1.3 3.1-2.6 3.1-.8 0-1.4-.3-1.8-.9v3.2h-1v-6.4zm1 1.6v.4c.2.7.8 1.2 1.6 1.2 1.1 0 1.8-.9 1.8-2.2 0-1.2-.6-2.2-1.7-2.2-.7 0-1.4.5-1.6 1.3 0 .1-.1.3-.1.4z"/><path d="m60.3 13.4c.5-.1 1.3-.2 2-.2 1.1 0 1.8.2 2.3.7.4.4.6.9.6 1.5 0 1.1-.7 1.8-1.5 2.1.6.2 1 .8 1.2 1.6.3 1.1.5 1.9.6 2.2h-1.1c-.1-.2-.3-.9-.5-1.9-.2-1.1-.7-1.5-1.6-1.6h-1v3.5h-1zm1.1 3.6h1.1c1.1 0 1.8-.6 1.8-1.5 0-1-.8-1.5-1.9-1.5-.5 0-.9 0-1 .1z"/><path d="m67.4 18.6c0 1.4.9 2 2 2 .8 0 1.2-.1 1.6-.3l.2.8c-.4.2-1 .4-1.9.4-1.8 0-2.9-1.2-2.9-2.9 0-1.8 1-3.1 2.7-3.1 1.9 0 2.4 1.7 2.4 2.7v.5h-4.1zm3.1-.7c0-.7-.3-1.7-1.5-1.7-1.1 0-1.5 1-1.6 1.7z"/><path d="m76.8 20.4c-.3.6-1 1-1.9 1-1.4 0-2.5-1.2-2.5-2.9 0-2.2 1.4-3.1 2.6-3.1.9 0 1.5.4 1.8 1v-.9h1v1.6 6.6h-1.1v-3.3zm0-2.5c0-.1 0-.3 0-.4-.2-.6-.7-1.2-1.5-1.2-1.1 0-1.8.9-1.8 2.2 0 1.2.6 2.2 1.7 2.2.7 0 1.3-.4 1.5-1.2 0-.1.1-.3.1-.5z"/><path d="m84.4 19.8v1.6h-.9l-.1-.9c-.3.5-.9 1.1-1.9 1.1-.9 0-2-.5-2-2.5v-3.4h1.1v3.2c0 1.1.3 1.8 1.3 1.8.7 0 1.2-.5 1.4-1 .1-.2.1-.3.1-.5v-3.6h1.1v4.2z"/><path d="m86.8 18.6c0 1.4.9 2 2 2 .8 0 1.2-.1 1.6-.3l.2.8c-.4.2-1 .4-1.9.4-1.8 0-2.9-1.2-2.9-2.9 0-1.8 1-3.1 2.7-3.1 1.9 0 2.4 1.7 2.4 2.7v.5h-4.1zm3.1-.7c0-.7-.3-1.7-1.5-1.7-1.1 0-1.5 1-1.6 1.7z"/><path d="m92.1 20.3c.3.2.9.4 1.4.4.8 0 1.1-.4 1.1-.9s-.3-.8-1.1-1.1c-1-.4-1.5-.9-1.5-1.6 0-.9.8-1.7 2-1.7.6 0 1.1.2 1.4.4l-.3.8c-.2-.1-.6-.3-1.2-.3s-1 .4-1 .8c0 .5.3.7 1.1 1 1 .4 1.5.9 1.5 1.8 0 1-.8 1.7-2.2 1.7-.6 0-1.2-.2-1.6-.4z"/><path d="m98.2 13.9v1.7h1.5v.8h-1.5v3.1c0 .7.2 1.1.8 1.1.3 0 .5 0 .6-.1v.8c-.2.1-.5.1-.9.1-.5 0-.9-.2-1.1-.4-.3-.3-.4-.8-.4-1.5v-3.2h-.9v-.8h.9v-1.4z"/><path d="m103.2 13c-.9 1.2-1.5 2.7-1.5 4.9 0 2.1.7 3.7 1.5 4.9h-.8c-.8-1-1.6-2.5-1.6-4.9s.8-3.9 1.6-4.9z"/><path d="m103.7 22.8c.9-1.2 1.5-2.7 1.5-4.9 0-2.1-.6-3.7-1.5-4.9h.8c.8 1 1.6 2.5 1.6 4.9s-.8 3.9-1.6 4.9z"/><path d="m31.4 35.7-2.1-8.1h1.1l1 4.1c.2 1 .5 2 .6 2.8.1-.8.4-1.8.7-2.8l1.1-4.1h1.1l1 4.1c.2 1 .4 1.9.6 2.8.2-.9.4-1.8.6-2.8l1.1-4.1h1.1l-2.3 8.1h-1.1l-1-4.2c-.3-1-.4-1.8-.5-2.6-.1.8-.3 1.6-.6 2.6l-1.2 4.2z"/><path d="m40.4 33c0 1.4.9 2 2 2 .8 0 1.2-.1 1.6-.3l.2.8c-.4.2-1 .4-1.9.4-1.8 0-2.9-1.2-2.9-2.9s1-3.1 2.7-3.1c1.9 0 2.4 1.7 2.4 2.7v.5h-4.1zm3.1-.7c0-.7-.3-1.7-1.5-1.7-1.1 0-1.5 1-1.6 1.7z"/><path d="m45.8 35.7c0-.4 0-1 0-1.5v-7h1v3.6c.4-.6 1-1.1 2-1.1 1.4 0 2.5 1.2 2.4 3 0 2.1-1.3 3.1-2.6 3.1-.8 0-1.5-.3-1.9-1.1v1zm1.1-2.3v.4c.2.7.8 1.2 1.6 1.2 1.1 0 1.8-.9 1.8-2.2 0-1.2-.6-2.2-1.7-2.2-.7 0-1.4.5-1.6 1.3 0 .1-.1.3-.1.4z"/><path d="m52.5 34.5c.5.3 1.2.5 1.9.5 1.1 0 1.7-.6 1.7-1.4s-.4-1.2-1.5-1.6c-1.3-.5-2.1-1.2-2.1-2.3 0-1.3 1-2.2 2.6-2.2.8 0 1.4.2 1.8.4l-.3.9c-.3-.1-.8-.4-1.5-.4-1.1 0-1.5.7-1.5 1.2 0 .8.5 1.1 1.6 1.6 1.4.5 2.1 1.2 2.1 2.4s-.9 2.3-2.8 2.3c-.8 0-1.6-.2-2.1-.5z"/><path d="m63.9 32.8c0 2.1-1.5 3.1-2.9 3.1-1.6 0-2.8-1.2-2.8-3 0-1.9 1.3-3.1 2.9-3.1 1.7 0 2.8 1.2 2.8 3zm-4.6 0c0 1.3.7 2.2 1.8 2.2 1 0 1.8-.9 1.8-2.3 0-1-.5-2.2-1.7-2.2-1.4.1-1.9 1.2-1.9 2.3z"/><path d="m69.4 35.5c-.3.1-.9.3-1.7.3-1.8 0-2.9-1.2-2.9-3s1.2-3.1 3.1-3.1c.6 0 1.2.2 1.5.3l-.2.8c-.3-.1-.6-.3-1.2-.3-1.3 0-2.1 1-2.1 2.2 0 1.3.9 2.2 2 2.2.6 0 1-.2 1.3-.3z"/><path d="m71.6 32.6c.2-.2.4-.5.5-.7l1.7-2h1.3l-2.2 2.4 2.6 3.4h-1.3l-2-2.8-.5.6v2.2h-1v-8.5h1v5.4z"/><path d="m76.8 33c0 1.4.9 2 2 2 .8 0 1.2-.1 1.6-.3l.2.8c-.4.2-1 .4-1.9.4-1.8 0-2.9-1.2-2.9-2.9s1-3.1 2.7-3.1c1.9 0 2.4 1.7 2.4 2.7v.5h-4.1zm3.1-.7c0-.7-.3-1.7-1.5-1.7-1.1 0-1.5 1-1.6 1.7z"/><path d="m83.5 28.3v1.7h1.5v.8h-1.5v3.1c0 .7.2 1.1.8 1.1.3 0 .5 0 .6-.1v.8c-.2.1-.5.1-.9.1-.5 0-.9-.2-1.1-.4-.3-.3-.4-.8-.4-1.5v-3.2h-.9v-.8h.9v-1.4z"/><path d="m88.5 27.4c-.9 1.2-1.5 2.7-1.5 4.9 0 2.1.7 3.7 1.5 4.9h-.8c-.8-1-1.6-2.5-1.6-4.9s.8-3.9 1.6-4.9z"/><path d="m89 37.2c.9-1.2 1.5-2.7 1.5-4.9 0-2.1-.6-3.7-1.5-4.9h.8c.8 1 1.6 2.5 1.6 4.9s-.8 3.9-1.6 4.9z"/><path d="m31.2 46.3h-3.2v2.9h3.5v.9h-4.5v-8.1h4.4v.9h-3.4v2.6h3.1v.8z"/><path d="m33.2 44.3 1.1 3.3c.2.5.3 1 .5 1.5.1-.5.3-1 .5-1.5l1.1-3.3h1.1l-2.3 5.8h-1l-2.2-5.8z"/><path d="m39 47.4c0 1.4.9 2 2 2 .8 0 1.2-.1 1.6-.3l.2.8c-.4.2-1 .4-1.9.4-1.8 0-2.9-1.2-2.9-2.9 0-1.8 1-3.1 2.7-3.1 1.9 0 2.4 1.7 2.4 2.7v.5h-4.1zm3.1-.7c0-.7-.3-1.7-1.5-1.7-1.1 0-1.5 1-1.6 1.7z"/><path d="m44.4 45.9c0-.6 0-1.1 0-1.6h.9l.1 1c.3-.6 1-1.1 1.9-1.1.8 0 2.1.5 2.1 2.5v3.5h-1.1v-3.3c0-.9-.3-1.7-1.3-1.7-.7 0-1.2.5-1.4 1.1 0 .1-.1.3-.1.5v3.5h-1.1z"/><path d="m52.3 42.7v1.7h1.5v.8h-1.5v3.1c0 .7.2 1.1.8 1.1.3 0 .5 0 .6-.1v.8c-.2.1-.5.1-.9.1-.5 0-.9-.2-1.1-.4-.3-.3-.4-.8-.4-1.5v-3.2h-.9v-.8h.9v-1.4z"/><path d="m54.9 48.9c.5.3 1.2.5 1.9.5 1.1 0 1.7-.6 1.7-1.4s-.4-1.2-1.5-1.6c-1.3-.5-2.1-1.2-2.1-2.3 0-1.3 1-2.2 2.6-2.2.8 0 1.4.2 1.8.4l-.3.9c-.3-.1-.8-.4-1.5-.4-1.1 0-1.5.7-1.5 1.2 0 .8.5 1.1 1.6 1.6 1.4.5 2.1 1.2 2.1 2.4s-.9 2.3-2.8 2.3c-.8 0-1.6-.2-2.1-.5z"/><path d="m66.3 47.2c0 2.1-1.5 3.1-2.9 3.1-1.6 0-2.8-1.2-2.8-3 0-1.9 1.3-3.1 2.9-3.1s2.8 1.2 2.8 3zm-4.7 0c0 1.3.7 2.2 1.8 2.2 1 0 1.8-.9 1.8-2.3 0-1-.5-2.2-1.7-2.2-1.3.1-1.9 1.2-1.9 2.3z"/><path d="m72.4 48.5v1.6h-.9l-.1-.9c-.3.5-.9 1.1-1.9 1.1-.9 0-2-.5-2-2.5v-3.4h1.1v3.2c0 1.1.3 1.8 1.3 1.8.7 0 1.2-.5 1.4-1 .1-.2.1-.3.1-.5v-3.6h1.1v4.2z"/><path d="m74.2 46.1c0-.7 0-1.3 0-1.8h.9v1.1c.3-.8.9-1.3 1.6-1.3h.3v1c-.1 0-.2 0-.4 0-.7 0-1.3.6-1.4 1.4v.5 3.1h-1z"/><path d="m82.1 49.9c-.3.1-.9.3-1.7.3-1.8 0-2.9-1.2-2.9-3s1.2-3.1 3.1-3.1c.6 0 1.2.2 1.5.3l-.2.8c-.3-.1-.6-.3-1.2-.3-1.3 0-2.1 1-2.1 2.2 0 1.3.9 2.2 2 2.2.6 0 1-.2 1.3-.3z"/><path d="m83.9 47.4c0 1.4.9 2 2 2 .8 0 1.2-.1 1.6-.3l.2.8c-.4.2-1 .4-1.9.4-1.8 0-2.9-1.2-2.9-2.9 0-1.8 1-3.1 2.7-3.1 1.9 0 2.4 1.7 2.4 2.7v.5h-4.1zm3.1-.7c0-.7-.3-1.7-1.5-1.7-1.1 0-1.5 1-1.6 1.7z"/><path d="m91.6 41.8c-.9 1.2-1.5 2.7-1.5 4.9 0 2.1.7 3.7 1.5 4.9h-.8c-.8-1-1.6-2.5-1.6-4.9s.8-3.9 1.6-4.9z"/><path d="m92.1 51.6c.9-1.2 1.5-2.7 1.5-4.9 0-2.1-.6-3.7-1.5-4.9h.8c.8 1 1.6 2.5 1.6 4.9s-.8 3.9-1.6 4.9z"/><path d="m27.4 63.5c.3.2.9.4 1.4.4.8 0 1.1-.4 1.1-.9s-.3-.8-1.1-1.1c-1-.4-1.5-.9-1.5-1.6 0-.9.8-1.7 2-1.7.6 0 1.1.2 1.4.4l-.3.8c-.2-.1-.6-.3-1.2-.3s-1 .4-1 .8c0 .5.3.7 1.1 1 1 .4 1.5.9 1.5 1.8 0 1-.8 1.7-2.2 1.7-.6 0-1.2-.2-1.6-.4z"/><path d="m32.9 61.8c0 1.4.9 2 2 2 .8 0 1.2-.1 1.6-.3l.2.8c-.4.2-1 .4-1.9.4-1.8 0-2.9-1.2-2.9-2.9 0-1.8 1-3.1 2.7-3.1 1.9 0 2.4 1.7 2.4 2.7v.5h-4.1zm3.1-.7c0-.7-.3-1.7-1.5-1.7-1.1 0-1.5 1-1.6 1.7z"/><path d="m38.4 60.3c0-.6 0-1.1 0-1.6h.9l.1 1c.3-.6 1-1.1 1.9-1.1.8 0 2.1.5 2.1 2.5v3.5h-1.1v-3.3c0-.9-.3-1.7-1.3-1.7-.7 0-1.2.5-1.4 1.1 0 .1-.1.3-.1.5v3.5h-1.1z"/><path d="m50 56v7 1.5h-.9v-1c-.3.6-1 1.1-2 1.1-1.4 0-2.5-1.2-2.5-3 0-1.9 1.2-3.1 2.6-3.1.9 0 1.5.4 1.8.9v-3.4zm-1 5.1c0-.1 0-.3 0-.4-.2-.7-.7-1.2-1.5-1.2-1.1 0-1.7 1-1.7 2.2s.6 2.1 1.7 2.1c.7 0 1.4-.5 1.5-1.3 0-.1 0-.3 0-.5z"/><path d="m51.8 56.6c.5-.1 1.2-.2 1.9-.2 1 0 1.7.2 2.2.6.4.3.7.8.7 1.4 0 .8-.5 1.5-1.4 1.8.8.2 1.7.8 1.7 2 0 .7-.3 1.2-.7 1.6-.6.5-1.5.8-2.8.8-.7 0-1.3 0-1.6-.1zm1.1 3.3h.9c1.1 0 1.8-.6 1.8-1.4 0-.9-.7-1.3-1.8-1.3-.5 0-.8 0-.9.1zm0 3.8h.9c1.1 0 2.1-.4 2.1-1.6 0-1.1-.9-1.6-2.1-1.6h-.9z"/><path d="m58.9 61.8c0 1.4.9 2 2 2 .8 0 1.2-.1 1.6-.3l.2.8c-.4.2-1 .4-1.9.4-1.8 0-2.9-1.2-2.9-2.9 0-1.8 1-3.1 2.7-3.1 1.9 0 2.4 1.7 2.4 2.7v.5h-4.1zm3.1-.7c0-.7-.3-1.7-1.5-1.7-1.1 0-1.5 1-1.6 1.7z"/><path d="m67.6 64.5-.1-.7c-.3.5-.9.9-1.8.9-1.2 0-1.8-.8-1.8-1.7 0-1.4 1.2-2.2 3.5-2.2v-.1c0-.5-.1-1.3-1.3-1.3-.5 0-1.1.2-1.5.4l-.2-.7c.5-.3 1.2-.5 1.9-.5 1.8 0 2.2 1.2 2.2 2.4v2.2c0 .5 0 1 .1 1.4h-1zm-.2-2.9c-1.2 0-2.5.2-2.5 1.3 0 .7.5 1 1 1 .8 0 1.2-.5 1.4-1 0-.1.1-.2.1-.3z"/><path d="m74.3 64.3c-.3.1-.9.3-1.7.3-1.8 0-2.9-1.2-2.9-3s1.2-3.1 3.1-3.1c.6 0 1.2.2 1.5.3l-.3.9c-.3-.1-.6-.3-1.2-.3-1.3 0-2.1 1-2.1 2.2 0 1.3.9 2.2 2 2.2.6 0 1-.2 1.3-.3z"/><path d="m80.7 61.6c0 2.1-1.5 3.1-2.9 3.1-1.6 0-2.8-1.2-2.8-3 0-1.9 1.3-3.1 2.9-3.1 1.7 0 2.8 1.2 2.8 3zm-4.6 0c0 1.3.7 2.2 1.8 2.2 1 0 1.8-.9 1.8-2.3 0-1-.5-2.2-1.7-2.2-1.4.1-1.9 1.2-1.9 2.3z"/><path d="m82 60.3c0-.6 0-1.1 0-1.6h.9l.1 1c.3-.6 1-1.1 1.9-1.1.8 0 2.1.5 2.1 2.5v3.5h-1.1v-3.3c0-.9-.3-1.7-1.3-1.7-.7 0-1.2.5-1.4 1.1 0 .1-.1.3-.1.5v3.5h-1.1z"/><path d="m91 56.2c-.9 1.2-1.5 2.7-1.5 4.9 0 2.1.7 3.7 1.5 4.9h-.8c-.8-1-1.6-2.5-1.6-4.9s.8-3.9 1.6-4.9z"/><path d="m91.5 66c.9-1.2 1.5-2.7 1.5-4.9 0-2.1-.6-3.7-1.5-4.9h.8c.8 1 1.6 2.5 1.6 4.9s-.8 3.9-1.6 4.9z"/><path d="m45.6 78.9v-5h-.8v-.8h.8v-.3c0-.8.2-1.6.7-2 .4-.4.9-.5 1.4-.5.4 0 .7.1.9.2l-.1.8c-.2-.1-.4-.1-.7-.1-.9 0-1.1.8-1.1 1.7v.3h1.3v.8h-1.4v5h-1z"/><path d="m49.4 76.2c0 1.4.9 2 2 2 .8 0 1.2-.1 1.6-.3l.2.8c-.4.2-1 .4-1.9.4-1.8 0-2.9-1.2-2.9-2.9s1-3.1 2.7-3.1c1.9 0 2.4 1.7 2.4 2.7v.5h-4.1zm3.1-.7c0-.7-.3-1.7-1.5-1.7-1.1 0-1.5 1-1.6 1.7z"/><path d="m56.1 71.5v1.7h1.5v.8h-1.5v3.1c0 .7.2 1.1.8 1.1.3 0 .5 0 .6-.1v.8c-.2.1-.5.1-.9.1-.5 0-.9-.2-1.1-.4-.3-.3-.4-.8-.4-1.5v-3.2h-.9v-.8h.9v-1.4z"/><path d="m62.9 78.7c-.3.1-.9.3-1.7.3-1.8 0-2.9-1.2-2.9-3s1.2-3.1 3.1-3.1c.6 0 1.2.2 1.5.3l-.2.8c-.3-.1-.6-.3-1.2-.3-1.3 0-2.1 1-2.1 2.2 0 1.3.9 2.2 2 2.2.6 0 1-.2 1.3-.3z"/><path d="m64.1 70.4h1.1v3.6c.2-.3.4-.6.8-.7.3-.2.7-.3 1.1-.3.8 0 2 .5 2 2.5v3.5h-1.1v-3.3c0-.9-.3-1.7-1.3-1.7-.7 0-1.2.5-1.4 1.1-.1.1-.1.3-.1.5v3.5h-1.1z"/><path d="m73.1 70.6c-.9 1.2-1.5 2.7-1.5 4.9 0 2.1.7 3.7 1.5 4.9h-.8c-.8-1-1.6-2.5-1.6-4.9s.8-3.9 1.6-4.9z"/><path d="m73.6 80.4c.9-1.2 1.5-2.7 1.5-4.9 0-2.1-.6-3.7-1.5-4.9h.8c.8 1 1.6 2.5 1.6 4.9s-.8 3.9-1.6 4.9z"/></g><path d="m2.3 103.7h114.7v33.3h-114.7z" fill="none" stroke="#13007c" stroke-miterlimit="10"/><path d="m8.8 120.8 5.6-2.9v.8l-4.7 2.4 4.7 2.4v.8l-5.6-2.9z" fill="#13007c"/><path d="m16 115.8h1.1v8.5h-1.1z" fill="#13007c"/><path d="m20 116.9c0 .4-.3.6-.7.6s-.6-.3-.6-.6c0-.4.3-.7.7-.7s.6.3.6.7zm-1.1 7.4v-5.8h1.1v5.8z" fill="#13007c"/><path d="m21.7 120.1c0-.6 0-1.1 0-1.6h.9l.1 1c.3-.6 1-1.1 1.9-1.1.8 0 2.1.5 2.1 2.5v3.5h-1.1v-3.4c0-.9-.3-1.7-1.3-1.7-.7 0-1.2.5-1.4 1.1 0 .1-.1.3-.1.5v3.5h-1.1z" fill="#13007c"/><path d="m29.4 121.2c.2-.2.4-.5.5-.7l1.7-2h1.3l-2.2 2.4 2.6 3.4h-1.3l-2-2.8-.5.6v2.2h-1v-8.5h1v5.4z" fill="#13007c"/><path d="m36.5 120.3c0-.7 0-1.3 0-1.8h.9v1.1c.3-.8.9-1.3 1.6-1.3h.3v1c-.1 0-.2 0-.4 0-.7 0-1.3.6-1.4 1.4v.5 3.1h-1z" fill="#13007c"/><path d="m40.9 121.6c0 1.4.9 2 2 2 .8 0 1.2-.1 1.6-.3l.2.8c-.4.2-1 .4-1.9.4-1.8 0-2.9-1.2-2.9-2.9 0-1.8 1-3.1 2.7-3.1 1.9 0 2.4 1.7 2.4 2.7v.5h-4.1zm3.1-.7c0-.7-.3-1.7-1.5-1.7-1.1 0-1.5 1-1.6 1.7z" fill="#13007c"/><path d="m46.3 115.8h1.1v8.5h-1.1z" fill="#13007c"/><path d="m48.8 120.3v-.7h6.2v.7zm0 2.3v-.7h6.2v.7z" fill="#13007c"/><path d="m56.2 123.3c.3.2.9.4 1.4.4.8 0 1.1-.4 1.1-.9s-.3-.8-1.1-1.1c-1-.4-1.5-.9-1.5-1.6 0-.9.8-1.7 2-1.7.6 0 1.1.2 1.4.4l-.3.8c-.2-.1-.6-.3-1.2-.3s-1 .4-1 .8c0 .5.3.7 1.1 1 1 .4 1.5.9 1.5 1.8 0 1-.8 1.7-2.2 1.7-.6 0-1.2-.2-1.6-.4z" fill="#13007c"/><path d="m62.3 116.9v1.7h1.5v.8h-1.5v3.1c0 .7.2 1.1.8 1.1.3 0 .5 0 .6-.1v.8c-.2.1-.5.1-.9.1-.5 0-.9-.2-1.1-.4-.3-.3-.4-.8-.4-1.5v-3.2h-.9v-.8h.9v-1.4z" fill="#13007c"/><path d="m65.5 118.5 1.3 3.4c.1.4.3.8.4 1.2.1-.3.2-.8.4-1.2l1.2-3.4h1.1l-1.6 4.1c-.8 2-1.3 3-2 3.6-.5.5-1 .6-1.3.7l-.3-.9c.3-.1.6-.3.9-.5s.6-.6.9-1.2c0-.1.1-.2.1-.3s0-.1-.1-.3l-2.1-5.3h1.1z" fill="#13007c"/><path d="m70.8 115.8h1.1v8.5h-1.1z" fill="#13007c"/><path d="m74.2 121.6c0 1.4.9 2 2 2 .8 0 1.2-.1 1.6-.3l.2.8c-.4.2-1 .4-1.9.4-1.8 0-2.9-1.2-2.9-2.9 0-1.8 1-3.1 2.7-3.1 1.9 0 2.4 1.7 2.4 2.7v.5h-4.1zm3.1-.7c0-.7-.3-1.7-1.5-1.7-1.1 0-1.5 1-1.6 1.7z" fill="#13007c"/><path d="m79.5 123.3c.3.2.9.4 1.4.4.8 0 1.1-.4 1.1-.9s-.3-.8-1.1-1.1c-1-.4-1.5-.9-1.5-1.6 0-.9.8-1.7 2-1.7.6 0 1.1.2 1.4.4l-.3.8c-.2-.1-.6-.3-1.2-.3s-1 .4-1 .8c0 .5.3.7 1.1 1 1 .4 1.5.9 1.5 1.8 0 1-.8 1.7-2.2 1.7-.6 0-1.2-.2-1.6-.4z" fill="#13007c"/><path d="m84.4 115.8h1.1v3.6c.2-.3.4-.6.8-.7.3-.2.7-.3 1.1-.3.8 0 2 .5 2 2.5v3.5h-1.1v-3.4c0-.9-.3-1.7-1.3-1.7-.7 0-1.2.5-1.4 1.1-.1.1-.1.3-.1.5v3.5h-1.1z" fill="#13007c"/><path d="m91.6 121.6c0 1.4.9 2 2 2 .8 0 1.2-.1 1.6-.3l.2.8c-.4.2-1 .4-1.9.4-1.8 0-2.9-1.2-2.9-2.9 0-1.8 1-3.1 2.7-3.1 1.9 0 2.4 1.7 2.4 2.7v.5h-4.1zm3.1-.7c0-.7-.3-1.7-1.5-1.7-1.1 0-1.5 1-1.6 1.7z" fill="#13007c"/><path d="m97.6 121.6c0 1.4.9 2 2 2 .8 0 1.2-.1 1.6-.3l.2.8c-.4.2-1 .4-1.9.4-1.8 0-2.9-1.2-2.9-2.9 0-1.8 1-3.1 2.7-3.1 1.9 0 2.4 1.7 2.4 2.7v.5h-4.1zm3.1-.7c0-.7-.3-1.7-1.5-1.7-1.1 0-1.5 1-1.6 1.7z" fill="#13007c"/><path d="m104.3 116.9v1.7h1.5v.8h-1.5v3.1c0 .7.2 1.1.8 1.1.3 0 .5 0 .6-.1v.8c-.2.1-.5.1-.9.1-.5 0-.9-.2-1.1-.4-.3-.3-.4-.8-.4-1.5v-3.2h-.9v-.8h.9v-1.4z" fill="#13007c"/><path d="m112.5 121.5-5.6 2.9v-.8l4.7-2.4-4.7-2.4v-.8l5.6 2.9z" fill="#13007c"/><path d="m160.7 28.7h114.7v33.3h-114.7z" fill="none" stroke="#c2000b" stroke-miterlimit="10"/><path d="m194.9 49.1c-.3.1-.9.3-1.7.3-1.8 0-2.9-1.2-2.9-3s1.2-3.1 3.1-3.1c.6 0 1.2.2 1.5.3l-.2.8c-.3-.1-.6-.3-1.2-.3-1.3 0-2.1 1-2.1 2.2 0 1.3.9 2.2 2 2.2.6 0 1-.2 1.3-.3z" fill="#c2000b"/><path d="m201.3 46.4c0 2.1-1.5 3.1-2.9 3.1-1.6 0-2.8-1.2-2.8-3 0-1.9 1.3-3.1 2.9-3.1 1.7 0 2.8 1.2 2.8 3zm-4.6 0c0 1.3.7 2.2 1.8 2.2 1 0 1.8-.9 1.8-2.3 0-1-.5-2.2-1.7-2.2-1.4.1-1.9 1.2-1.9 2.3z" fill="#c2000b"/><path d="m202.6 45.1c0-.6 0-1.1 0-1.6h.9l.1 1c.3-.6 1-1.1 1.9-1.1.8 0 2.1.5 2.1 2.5v3.5h-1.1v-3.4c0-.9-.3-1.7-1.3-1.7-.7 0-1.2.5-1.4 1.1 0 .1-.1.3-.1.5v3.5h-1.1z" fill="#c2000b"/><path d="m209.3 45.1c0-.6 0-1.1 0-1.6h.9l.1 1c.3-.6 1-1.1 1.9-1.1.8 0 2.1.5 2.1 2.5v3.5h-1.1v-3.4c0-.9-.3-1.7-1.3-1.7-.7 0-1.2.5-1.4 1.1 0 .1-.1.3-.1.5v3.5h-1.1z" fill="#c2000b"/><path d="m216.5 46.6c0 1.4.9 2 2 2 .8 0 1.2-.1 1.6-.3l.2.8c-.4.2-1 .4-1.9.4-1.8 0-2.9-1.2-2.9-2.9 0-1.8 1-3.1 2.7-3.1 1.9 0 2.4 1.7 2.4 2.7v.5h-4.1zm3.1-.7c0-.7-.3-1.7-1.5-1.7-1.1 0-1.5 1-1.6 1.7z" fill="#c2000b"/><path d="m226.1 49.1c-.3.1-.9.3-1.7.3-1.8 0-2.9-1.2-2.9-3s1.2-3.1 3.1-3.1c.6 0 1.2.2 1.5.3l-.2.8c-.3-.1-.6-.3-1.2-.3-1.3 0-2.1 1-2.1 2.2 0 1.3.9 2.2 2 2.2.6 0 1-.2 1.3-.3z" fill="#c2000b"/><path d="m228.8 41.9v1.7h1.5v.8h-1.5v3.1c0 .7.2 1.1.8 1.1.3 0 .5 0 .6-.1v.8c-.2.1-.5.1-.9.1-.5 0-.9-.2-1.1-.4-.3-.3-.4-.8-.4-1.5v-3.2h-.9v-.8h.9v-1.4z" fill="#c2000b"/><path d="m233.8 45.7v.8h-3v-.8z" fill="#c2000b"/><path d="m234.9 48.3c.3.2.9.4 1.4.4.8 0 1.1-.4 1.1-.9s-.3-.8-1.1-1.1c-1-.4-1.5-.9-1.5-1.6 0-.9.8-1.7 2-1.7.6 0 1.1.2 1.4.4l-.3.8c-.2-.1-.6-.3-1.2-.3s-1 .4-1 .8c0 .5.3.7 1.1 1 1 .4 1.5.9 1.5 1.8 0 1-.8 1.7-2.2 1.7-.6 0-1.2-.2-1.6-.4z" fill="#c2000b"/><path d="m239.8 45.3c0-.7 0-1.3 0-1.8h.9v1.1c.3-.8.9-1.3 1.6-1.3h.3v1c-.1 0-.2 0-.4 0-.7 0-1.3.6-1.4 1.4v.5 3.1h-1z" fill="#c2000b"/><path d="m247.8 49.1c-.3.1-.9.3-1.7.3-1.8 0-2.9-1.2-2.9-3s1.2-3.1 3.1-3.1c.6 0 1.2.2 1.5.3l-.2.8c-.3-.1-.6-.3-1.2-.3-1.3 0-2.1 1-2.1 2.2 0 1.3.9 2.2 2 2.2.6 0 1-.2 1.3-.3z" fill="#c2000b"/><path d="m160.7 103.7h114.7v33.3h-114.7z" fill="none" stroke="#c2000b" stroke-miterlimit="10"/><path d="m199.1 123.3c.3.2.9.4 1.4.4.8 0 1.1-.4 1.1-.9s-.3-.8-1.1-1.1c-1-.4-1.5-.9-1.5-1.6 0-.9.8-1.7 2-1.7.6 0 1.1.2 1.4.4l-.3.8c-.2-.1-.6-.3-1.2-.3s-1 .4-1 .8c0 .5.3.7 1.1 1 1 .4 1.5.9 1.5 1.8 0 1-.8 1.7-2.2 1.7-.6 0-1.2-.2-1.6-.4z" fill="#c2000b"/><path d="m205.3 116.9v1.7h1.5v.8h-1.5v3.1c0 .7.2 1.1.8 1.1.3 0 .5 0 .6-.1v.8c-.2.1-.5.1-.9.1-.5 0-.9-.2-1.1-.4-.3-.3-.4-.8-.4-1.5v-3.2h-.9v-.8h.9v-1.4z" fill="#c2000b"/><path d="m208.5 118.5 1.3 3.4c.1.4.3.8.4 1.2.1-.3.2-.8.4-1.2l1.2-3.4h1.1l-1.6 4.1c-.8 2-1.3 3-2 3.6-.5.5-1 .6-1.3.7l-.3-.9c.3-.1.6-.3.9-.5s.6-.6.9-1.2c0-.1.1-.2.1-.3s0-.1-.1-.3l-2.1-5.3h1.1z" fill="#c2000b"/><path d="m213.7 115.8h1.1v8.5h-1.1z" fill="#c2000b"/><path d="m217.1 121.6c0 1.4.9 2 2 2 .8 0 1.2-.1 1.6-.3l.2.8c-.4.2-1 .4-1.9.4-1.8 0-2.9-1.2-2.9-2.9 0-1.8 1-3.1 2.7-3.1 1.9 0 2.4 1.7 2.4 2.7v.5h-4.1zm3.1-.7c0-.7-.3-1.7-1.5-1.7-1.1 0-1.5 1-1.6 1.7z" fill="#c2000b"/><path d="m225.3 120.7v.8h-3v-.8z" fill="#c2000b"/><path d="m226.4 123.3c.3.2.9.4 1.4.4.8 0 1.1-.4 1.1-.9s-.3-.8-1.1-1.1c-1-.4-1.5-.9-1.5-1.6 0-.9.8-1.7 2-1.7.6 0 1.1.2 1.4.4l-.3.8c-.2-.1-.6-.3-1.2-.3s-1 .4-1 .8c0 .5.3.7 1.1 1 1 .4 1.5.9 1.5 1.8 0 1-.8 1.7-2.2 1.7-.6 0-1.2-.2-1.6-.4z" fill="#c2000b"/><path d="m231.3 120.3c0-.7 0-1.3 0-1.8h.9v1.1c.3-.8.9-1.3 1.6-1.3h.3v1c-.1 0-.2 0-.4 0-.7 0-1.3.6-1.4 1.4v.5 3.1h-1z" fill="#c2000b"/><path d="m239.3 124.1c-.3.1-.9.3-1.7.3-1.8 0-2.9-1.2-2.9-3s1.2-3.1 3.1-3.1c.6 0 1.2.2 1.5.3l-.2.8c-.3-.1-.6-.3-1.2-.3-1.3 0-2.1 1-2.1 2.2 0 1.3.9 2.2 2 2.2.6 0 1-.2 1.3-.3z" fill="#c2000b"/><path d="m160.7 152h114.7v33.3h-114.7z" fill="none" stroke="#c2000b" stroke-miterlimit="10"/><path d="m197.1 171.6c.3.2.9.4 1.4.4.8 0 1.1-.4 1.1-.9s-.3-.8-1.1-1.1c-1-.4-1.5-.9-1.5-1.6 0-.9.8-1.7 2-1.7.6 0 1.1.2 1.4.4l-.3.8c-.2-.1-.6-.3-1.2-.3s-1 .4-1 .8c0 .5.3.7 1.1 1 1 .4 1.5.9 1.5 1.8 0 1-.8 1.7-2.2 1.7-.6 0-1.2-.2-1.6-.4z" fill="#c2000b"/><path d="m206.1 172.5c-.3.1-.9.3-1.7.3-1.8 0-2.9-1.2-2.9-3s1.2-3.1 3.1-3.1c.6 0 1.2.2 1.5.3l-.2.8c-.3-.1-.6-.3-1.2-.3-1.3 0-2.1 1-2.1 2.2 0 1.3.9 2.2 2 2.2.6 0 1-.2 1.3-.3z" fill="#c2000b"/><path d="m207.4 168.7c0-.7 0-1.3 0-1.8h.9v1.1c.3-.8.9-1.3 1.6-1.3h.3v1c-.1 0-.2 0-.4 0-.7 0-1.3.6-1.4 1.4v.5 3.1h-1z" fill="#c2000b"/><path d="m212.5 165.2c0 .4-.3.6-.7.6s-.6-.3-.6-.6c0-.4.3-.7.7-.7.4.1.6.4.6.7zm-1.2 7.5v-5.8h1.1v5.8z" fill="#c2000b"/><path d="m214.2 168.8c0-.7 0-1.3 0-1.9h.9v1c.4-.7 1.1-1.1 2.1-1.1 1.4 0 2.5 1.2 2.5 3 0 2.1-1.3 3.1-2.6 3.1-.8 0-1.4-.3-1.8-.9v3.2h-1v-6.4zm1 1.5v.4c.2.7.8 1.2 1.6 1.2 1.1 0 1.8-.9 1.8-2.2 0-1.2-.6-2.2-1.7-2.2-.7 0-1.4.5-1.6 1.3 0 .1-.1.3-.1.4z" fill="#c2000b"/><path d="m222.2 165.2v1.7h1.5v.8h-1.5v3.1c0 .7.2 1.1.8 1.1.3 0 .5 0 .6-.1v.8c-.2.1-.5.1-.9.1-.5 0-.9-.2-1.1-.4-.3-.3-.4-.8-.4-1.5v-3.2h-.9v-.8h.9v-1.4z" fill="#c2000b"/><path d="m227.3 169v.8h-3v-.8z" fill="#c2000b"/><path d="m228.4 171.6c.3.2.9.4 1.4.4.8 0 1.1-.4 1.1-.9s-.3-.8-1.1-1.1c-1-.4-1.5-.9-1.5-1.6 0-.9.8-1.7 2-1.7.6 0 1.1.2 1.4.4l-.3.8c-.2-.1-.6-.3-1.2-.3s-1 .4-1 .8c0 .5.3.7 1.1 1 1 .4 1.5.9 1.5 1.8 0 1-.8 1.7-2.2 1.7-.6 0-1.2-.2-1.6-.4z" fill="#c2000b"/><path d="m233.3 168.7c0-.7 0-1.3 0-1.8h.9v1.1c.3-.8.9-1.3 1.6-1.3h.3v1c-.1 0-.2 0-.4 0-.7 0-1.3.6-1.4 1.4v.5 3.1h-1z" fill="#c2000b"/><path d="m241.3 172.5c-.3.1-.9.3-1.7.3-1.8 0-2.9-1.2-2.9-3s1.2-3.1 3.1-3.1c.6 0 1.2.2 1.5.3l-.2.8c-.3-.1-.6-.3-1.2-.3-1.3 0-2.1 1-2.1 2.2 0 1.3.9 2.2 2 2.2.6 0 1-.2 1.3-.3z" fill="#c2000b"/><path d="m160.7 200.3h114.7v33.3h-114.7z" fill="none" stroke="#c2000b" stroke-miterlimit="10"/><path d="m190.5 221v-5h-.8v-.8h.8v-.3c0-.8.2-1.6.7-2 .4-.4.9-.5 1.4-.5.4 0 .7.1.9.2l-.1.8c-.2-.1-.4-.1-.7-.1-.9 0-1.1.8-1.1 1.7v.3h1.4v.8h-1.4v5h-1.1z" fill="#c2000b"/><path d="m199 218c0 2.1-1.5 3.1-2.9 3.1-1.6 0-2.8-1.2-2.8-3 0-1.9 1.3-3.1 2.9-3.1 1.7.1 2.8 1.3 2.8 3zm-4.6.1c0 1.3.7 2.2 1.8 2.2 1 0 1.8-.9 1.8-2.3 0-1-.5-2.2-1.7-2.2-1.4.1-1.9 1.2-1.9 2.3z" fill="#c2000b"/><path d="m200.3 217c0-.7 0-1.3 0-1.8h.9v1.1c.3-.8.9-1.3 1.6-1.3h.3v1c-.1 0-.2 0-.4 0-.7 0-1.3.6-1.4 1.4v.5 3.1h-1z" fill="#c2000b"/><path d="m204.3 216.8c0-.6 0-1.1 0-1.6h.9v.9c.3-.6.9-1.1 1.8-1.1.8 0 1.4.5 1.6 1.2.2-.3.4-.6.6-.8.3-.3.7-.4 1.3-.4.8 0 1.9.5 1.9 2.5v3.4h-1v-3.3c0-1.1-.4-1.8-1.3-1.8-.6 0-1.1.4-1.2 1 0 .1-.1.3-.1.5v3.6h-1v-3.5c0-.9-.4-1.6-1.2-1.6-.7 0-1.1.5-1.3 1.1-.1.2-.1.3-.1.5v3.5h-1v-4.1z" fill="#c2000b"/><path d="m216.8 217.4v.8h-3v-.8z" fill="#c2000b"/><path d="m221.2 221-.1-.7c-.3.5-.9.9-1.8.9-1.2 0-1.8-.8-1.8-1.7 0-1.4 1.2-2.2 3.5-2.2v-.1c0-.5-.1-1.3-1.3-1.3-.5 0-1.1.2-1.5.4l-.2-.7c.5-.3 1.2-.5 1.9-.5 1.8 0 2.2 1.2 2.2 2.4v2.2c0 .5 0 1 .1 1.4h-1zm-.1-3c-1.2 0-2.5.2-2.5 1.3 0 .7.5 1 1 1 .8 0 1.2-.5 1.4-1 0-.1.1-.2.1-.3z" fill="#c2000b"/><path d="m227.9 220.8c-.3.1-.9.3-1.7.3-1.8 0-2.9-1.2-2.9-3s1.2-3.1 3.1-3.1c.6 0 1.2.2 1.5.3l-.2.8c-.3-.1-.6-.3-1.2-.3-1.3 0-2.1 1-2.1 2.2 0 1.3.9 2.2 2 2.2.6 0 1-.2 1.3-.3z" fill="#c2000b"/><path d="m230.6 213.5v1.7h1.5v.8h-1.5v3.1c0 .7.2 1.1.8 1.1.3 0 .5 0 .6-.1v.8c-.2.1-.5.1-.9.1-.5 0-.9-.2-1.1-.4-.3-.3-.4-.8-.4-1.5v-3.1h-.9v-.8h.9v-1.4z" fill="#c2000b"/><path d="m234.5 213.6c0 .4-.3.6-.7.6s-.6-.3-.6-.6c0-.4.3-.7.7-.7.3 0 .6.3.6.7zm-1.2 7.4v-5.8h1.1v5.8z" fill="#c2000b"/><path d="m241.4 218c0 2.1-1.5 3.1-2.9 3.1-1.6 0-2.8-1.2-2.8-3 0-1.9 1.3-3.1 2.9-3.1 1.6.1 2.8 1.3 2.8 3zm-4.7.1c0 1.3.7 2.2 1.8 2.2 1 0 1.8-.9 1.8-2.3 0-1-.5-2.2-1.7-2.2-1.3.1-1.9 1.2-1.9 2.3z" fill="#c2000b"/><path d="m242.7 216.8c0-.6 0-1.1 0-1.6h.9l.1 1c.3-.6 1-1.1 1.9-1.1.8 0 2.1.5 2.1 2.5v3.5h-1.1v-3.3c0-.9-.3-1.7-1.3-1.7-.7 0-1.2.5-1.4 1.1 0 .1-.1.3-.1.5v3.5h-1.1z" fill="#c2000b"/><path d="m160.7 248.7h114.7v33.3h-114.7z" fill="none" stroke="#c2000b" stroke-miterlimit="10"/><path d="m200.9 269.3v-5h-.8v-.8h.8v-.3c0-.8.2-1.6.7-2 .4-.4.9-.5 1.4-.5.4 0 .7.1.9.2l-.1.8c-.2-.1-.4-.1-.7-.1-.9 0-1.1.8-1.1 1.7v.3h1.4v.8h-1.4v5h-1.1z" fill="#c2000b"/><path d="m209.4 266.4c0 2.1-1.5 3.1-2.9 3.1-1.6 0-2.8-1.2-2.8-3 0-1.9 1.3-3.1 2.9-3.1 1.7 0 2.8 1.2 2.8 3zm-4.6 0c0 1.3.7 2.2 1.8 2.2 1 0 1.8-.9 1.8-2.3 0-1-.5-2.2-1.7-2.2-1.3.1-1.9 1.2-1.9 2.3z" fill="#c2000b"/><path d="m210.8 265.1c0-.6 0-1.1 0-1.6h.9l.1 1c.3-.6 1-1.1 1.9-1.1.8 0 2.1.5 2.1 2.5v3.5h-1.1v-3.4c0-.9-.3-1.7-1.3-1.7-.7 0-1.2.5-1.4 1.1 0 .1-.1.3-.1.5v3.5h-1.1z" fill="#c2000b"/><path d="m218.7 261.9v1.7h1.5v.8h-1.5v3.1c0 .7.2 1.1.8 1.1.3 0 .5 0 .6-.1v.8c-.2.1-.5.1-.9.1-.5 0-.9-.2-1.1-.4-.3-.3-.4-.8-.4-1.5v-3.2h-.9v-.8h.9v-1.4z" fill="#c2000b"/><path d="m223.7 265.7v.8h-3v-.8z" fill="#c2000b"/><path d="m224.8 268.3c.3.2.9.4 1.4.4.8 0 1.1-.4 1.1-.9s-.3-.8-1.1-1.1c-1-.4-1.5-.9-1.5-1.6 0-.9.8-1.7 2-1.7.6 0 1.1.2 1.4.4l-.3.8c-.2-.1-.6-.3-1.2-.3s-1 .4-1 .8c0 .5.3.7 1.1 1 1 .4 1.5.9 1.5 1.8 0 1-.8 1.7-2.2 1.7-.6 0-1.2-.2-1.6-.4z" fill="#c2000b"/><path d="m229.7 265.3c0-.7 0-1.3 0-1.8h.9v1.1c.3-.8.9-1.3 1.6-1.3h.3v1c-.1 0-.2 0-.4 0-.7 0-1.3.6-1.4 1.4v.5 3.1h-1z" fill="#c2000b"/><path d="m237.7 269.1c-.3.1-.9.3-1.7.3-1.8 0-2.9-1.2-2.9-3s1.2-3.1 3.1-3.1c.6 0 1.2.2 1.5.3l-.2.8c-.3-.1-.6-.3-1.2-.3-1.3 0-2.1 1-2.1 2.2 0 1.3.9 2.2 2 2.2.6 0 1-.2 1.3-.3z" fill="#c2000b"/><path d="m160.7 303.4h114.7v33.3h-114.7z" fill="none" stroke="#c2000b" stroke-miterlimit="10"/><path d="m203 323.9c-.3.1-.9.3-1.7.3-1.8 0-2.9-1.2-2.9-3s1.2-3.1 3.1-3.1c.6 0 1.2.2 1.5.3l-.2.8c-.3-.1-.6-.3-1.2-.3-1.3 0-2.1 1-2.1 2.2 0 1.3.9 2.2 2 2.2.6 0 1-.2 1.3-.3z" fill="#c2000b"/><path d="m204.2 315.6h1.1v3.6c.2-.3.4-.6.8-.7.3-.2.7-.3 1.1-.3.8 0 2 .5 2 2.5v3.5h-1.1v-3.3c0-.9-.3-1.7-1.3-1.7-.7 0-1.2.5-1.4 1.1-.1.1-.1.3-.1.5v3.5h-1.1z" fill="#c2000b"/><path d="m212.1 316.6c0 .4-.3.6-.7.6s-.6-.3-.6-.6c0-.4.3-.7.7-.7.3.1.6.4.6.7zm-1.2 7.5v-5.8h1.1v5.8z" fill="#c2000b"/><path d="m213.7 315.6h1.1v8.5h-1.1z" fill="#c2000b"/><path d="m221.5 315.6v7 1.5h-.9v-1c-.3.6-1 1.1-2 1.1-1.4 0-2.5-1.2-2.5-3 0-1.9 1.2-3.1 2.6-3.1.9 0 1.5.4 1.8.9v-3.5h1zm-1 5c0-.1 0-.3 0-.4-.2-.7-.7-1.2-1.5-1.2-1.1 0-1.7 1-1.7 2.2s.6 2.1 1.7 2.1c.7 0 1.4-.5 1.5-1.3 0-.1 0-.3 0-.5z" fill="#c2000b"/><path d="m225.7 320.4v.8h-3v-.8z" fill="#c2000b"/><path d="m226.8 323c.3.2.9.4 1.4.4.8 0 1.1-.4 1.1-.9s-.3-.8-1.1-1.1c-1-.4-1.5-.9-1.5-1.6 0-.9.8-1.7 2-1.7.6 0 1.1.2 1.4.4l-.3.8c-.2-.1-.6-.3-1.2-.3s-1 .4-1 .8c0 .5.3.7 1.1 1 1 .4 1.5.9 1.5 1.8 0 1-.8 1.7-2.2 1.7-.6 0-1.2-.2-1.6-.4z" fill="#c2000b"/><path d="m231.7 320.1c0-.7 0-1.3 0-1.8h.9v1.1c.3-.8.9-1.3 1.6-1.3h.3v1c-.1 0-.2 0-.4 0-.7 0-1.3.6-1.4 1.4v.5 3.1h-1z" fill="#c2000b"/><path d="m239.7 323.9c-.3.1-.9.3-1.7.3-1.8 0-2.9-1.2-2.9-3s1.2-3.1 3.1-3.1c.6 0 1.2.2 1.5.3l-.2.8c-.3-.1-.6-.3-1.2-.3-1.3 0-2.1 1-2.1 2.2 0 1.3.9 2.2 2 2.2.6 0 1-.2 1.3-.3z" fill="#c2000b"/><path d="m160.7 372.2h114.7v33.3h-114.7z" fill="none" stroke="#c2000b" stroke-miterlimit="10"/><path d="m200.4 389.9c0 2.1-1.5 3.1-2.9 3.1-1.6 0-2.8-1.2-2.8-3 0-1.9 1.3-3.1 2.9-3.1 1.7.1 2.8 1.3 2.8 3zm-4.6.1c0 1.3.7 2.2 1.8 2.2 1 0 1.8-.9 1.8-2.3 0-1-.5-2.2-1.7-2.2-1.3 0-1.9 1.2-1.9 2.3z" fill="#c2000b"/><path d="m201.7 392.9c0-.4 0-1 0-1.5v-7h1v3.6c.4-.6 1-1.1 2-1.1 1.4 0 2.5 1.2 2.4 3 0 2.1-1.3 3.1-2.6 3.1-.8 0-1.5-.3-1.9-1.1v1zm1.1-2.3v.4c.2.7.8 1.2 1.6 1.2 1.1 0 1.8-.9 1.8-2.2 0-1.2-.6-2.2-1.7-2.2-.7 0-1.4.5-1.6 1.3 0 .1-.1.3-.1.4z" fill="#c2000b"/><path d="m207.2 394.6c.5 0 .9-.2 1.2-.4.3-.3.4-.8.4-2.2v-4.9h1.1v5.3c0 1.1-.2 1.9-.7 2.4s-1.2.7-1.8.7zm2.7-9.1c0 .3-.2.6-.7.6-.4 0-.6-.3-.6-.6 0-.4.3-.7.7-.7.3 0 .6.3.6.7z" fill="#c2000b"/><path d="m212.1 390.2c0 1.4.9 2 2 2 .8 0 1.2-.1 1.6-.3l.2.8c-.4.2-1 .4-1.9.4-1.8 0-2.9-1.2-2.9-2.9 0-1.8 1-3.1 2.7-3.1 1.9 0 2.4 1.7 2.4 2.7v.5h-4.1zm3.1-.8c0-.7-.3-1.7-1.5-1.7-1.1 0-1.5 1-1.6 1.7z" fill="#c2000b"/><path d="m221.7 392.7c-.3.1-.9.3-1.7.3-1.8 0-2.9-1.2-2.9-3s1.2-3.1 3.1-3.1c.6 0 1.2.2 1.5.3l-.2.8c-.3-.1-.6-.3-1.2-.3-1.3 0-2.1 1-2.1 2.2 0 1.3.9 2.2 2 2.2.6 0 1-.2 1.3-.3z" fill="#c2000b"/><path d="m224.3 385.4v1.7h1.5v.8h-1.5v3.1c0 .7.2 1.1.8 1.1.3 0 .5 0 .6-.1v.8c-.2.1-.5.1-.9.1-.5 0-.9-.2-1.1-.4-.3-.3-.4-.8-.4-1.5v-3.2h-.9v-.8h.9v-1.4z" fill="#c2000b"/><path d="m229.4 389.3v.8h-3v-.8z" fill="#c2000b"/><path d="m230.5 391.8c.3.2.9.4 1.4.4.8 0 1.1-.4 1.1-.9s-.3-.8-1.1-1.1c-1-.4-1.5-.9-1.5-1.6 0-.9.8-1.7 2-1.7.6 0 1.1.2 1.4.4l-.3.8c-.2-.1-.6-.3-1.2-.3s-1 .4-1 .8c0 .5.3.7 1.1 1 1 .4 1.5.9 1.5 1.8 0 1-.8 1.7-2.2 1.7-.6 0-1.2-.2-1.6-.4z" fill="#c2000b"/><path d="m235.4 388.9c0-.7 0-1.3 0-1.8h.9v1.1c.3-.8.9-1.3 1.6-1.3h.3v1c-.1 0-.2 0-.4 0-.7 0-1.3.6-1.4 1.4v.5 3.1h-1z" fill="#c2000b"/><path d="m243.3 392.7c-.3.1-.9.3-1.7.3-1.8 0-2.9-1.2-2.9-3s1.2-3.1 3.1-3.1c.6 0 1.2.2 1.5.3l-.2.8c-.3-.1-.6-.3-1.2-.3-1.3 0-2.1 1-2.1 2.2 0 1.3.9 2.2 2 2.2.6 0 1-.2 1.3-.3z" fill="#c2000b"/><path d="m160.7 455h114.7v33.3h-114.7z" fill="none" stroke="#c2000b" stroke-miterlimit="10"/><path d="m195.4 471.4c0-.6 0-1.1 0-1.6h.9v.9c.3-.6.9-1.1 1.8-1.1.8 0 1.4.5 1.6 1.2.2-.3.4-.6.6-.8.3-.3.7-.4 1.3-.4.8 0 1.9.5 1.9 2.5v3.4h-1v-3.3c0-1.1-.4-1.8-1.3-1.8-.6 0-1.1.4-1.2 1 0 .1-.1.3-.1.5v3.6h-1v-3.5c0-.9-.4-1.6-1.2-1.6-.7 0-1.1.5-1.3 1.1-.1.2-.1.3-.1.5v3.5h-1v-4.1z" fill="#c2000b"/><path d="m206 473c0 1.4.9 2 2 2 .8 0 1.2-.1 1.6-.3l.2.8c-.4.2-1 .4-1.9.4-1.8 0-2.9-1.2-2.9-2.9s1-3.1 2.7-3.1c1.9 0 2.4 1.7 2.4 2.7v.5h-4.1zm3.1-.8c0-.7-.3-1.7-1.5-1.7-1.1 0-1.5 1-1.6 1.7z" fill="#c2000b"/><path d="m216.4 467.2v7 1.5h-.9v-1c-.3.6-1 1.1-2 1.1-1.4 0-2.5-1.2-2.5-3 0-1.9 1.2-3.1 2.6-3.1.9 0 1.5.4 1.8.9v-3.5h1zm-1 5c0-.1 0-.3 0-.4-.2-.7-.7-1.2-1.5-1.2-1.1 0-1.7 1-1.7 2.2s.6 2.1 1.7 2.1c.7 0 1.4-.5 1.5-1.3 0-.1 0-.3 0-.5z" fill="#c2000b"/><path d="m219.3 468.2c0 .4-.3.6-.7.6s-.6-.3-.6-.6c0-.4.3-.7.7-.7.4.1.6.4.6.7zm-1.1 7.5v-5.8h1.1v5.8z" fill="#c2000b"/><path d="m224.2 475.7-.1-.7c-.3.5-.9.9-1.8.9-1.2 0-1.8-.8-1.8-1.7 0-1.4 1.2-2.2 3.5-2.2v-.1c0-.5-.1-1.3-1.3-1.3-.5 0-1.1.2-1.5.4l-.2-.7c.5-.3 1.2-.5 1.9-.5 1.8 0 2.2 1.2 2.2 2.4v2.2c0 .5 0 1 .1 1.4h-1zm-.2-3c-1.2 0-2.5.2-2.5 1.3 0 .7.5 1 1 1 .8 0 1.2-.5 1.4-1 0-.1.1-.2.1-.3z" fill="#c2000b"/><path d="m229.2 472v.8h-3v-.8z" fill="#c2000b"/><path d="m230.3 474.6c.3.2.9.4 1.4.4.8 0 1.1-.4 1.1-.9s-.3-.8-1.1-1.1c-1-.4-1.5-.9-1.5-1.6 0-.9.8-1.7 2-1.7.6 0 1.1.2 1.4.4l-.3.8c-.2-.1-.6-.3-1.2-.3s-1 .4-1 .8c0 .5.3.7 1.1 1 1 .4 1.5.9 1.5 1.8 0 1-.8 1.7-2.2 1.7-.6 0-1.2-.2-1.6-.4z" fill="#c2000b"/><path d="m235.2 471.7c0-.7 0-1.3 0-1.8h.9v1.1c.3-.8.9-1.3 1.6-1.3h.3v1c-.1 0-.2 0-.4 0-.7 0-1.3.6-1.4 1.4v.5 3.1h-1z" fill="#c2000b"/><path d="m243.1 475.5c-.3.1-.9.3-1.7.3-1.8 0-2.9-1.2-2.9-3s1.2-3.1 3.1-3.1c.6 0 1.2.2 1.5.3l-.2.8c-.3-.1-.6-.3-1.2-.3-1.3 0-2.1 1-2.1 2.2 0 1.3.9 2.2 2 2.2.6 0 1-.2 1.3-.3z" fill="#c2000b"/><path d="m160.7 523.7h114.7v33.3h-114.7z" fill="none" stroke="#c2000b" stroke-miterlimit="10"/><path d="m202.5 536.9c0 .4-.3.6-.7.6s-.6-.3-.6-.6c0-.4.3-.7.7-.7.3.1.6.4.6.7zm-1.2 7.5v-5.8h1.1v5.8z" fill="#c2000b"/><path d="m204.1 540.1c0-.6 0-1.1 0-1.6h.9v.9c.3-.6.9-1.1 1.8-1.1.8 0 1.4.5 1.6 1.2.2-.3.4-.6.6-.8.3-.3.7-.4 1.3-.4.8 0 1.9.5 1.9 2.5v3.4h-1v-3.3c0-1.1-.4-1.8-1.3-1.8-.6 0-1.1.4-1.2 1 0 .1-.1.3-.1.5v3.6h-1v-3.5c0-.9-.4-1.6-1.2-1.6-.7 0-1.1.5-1.3 1.1-.1.2-.1.3-.1.5v3.5h-1v-4.1z" fill="#c2000b"/><path d="m219.1 538.6v1.6 3.4c0 1.3-.3 2.1-.8 2.7-.6.5-1.4.7-2.1.7s-1.5-.2-1.9-.5l.3-.8c.4.2 1 .5 1.7.5 1.1 0 1.9-.6 1.9-2v-.6c-.3.5-.9 1-1.8 1-1.4 0-2.5-1.2-2.5-2.8 0-2 1.3-3.1 2.6-3.1 1 0 1.6.5 1.8 1v-.9h.8zm-1.1 2.3c0-.2 0-.3-.1-.5-.2-.6-.7-1.1-1.5-1.1-1 0-1.7.9-1.7 2.2 0 1.1.6 2.1 1.7 2.1.6 0 1.2-.4 1.5-1.1.1-.2.1-.4.1-.6z" fill="#c2000b"/><path d="m223.3 540.7v.8h-3v-.8z" fill="#c2000b"/><path d="m224.4 543.3c.3.2.9.4 1.4.4.8 0 1.1-.4 1.1-.9s-.3-.8-1.1-1.1c-1-.4-1.5-.9-1.5-1.6 0-.9.8-1.7 2-1.7.6 0 1.1.2 1.4.4l-.3.8c-.2-.1-.6-.3-1.2-.3s-1 .4-1 .8c0 .5.3.7 1.1 1 1 .4 1.5.9 1.5 1.8 0 1-.8 1.7-2.2 1.7-.6 0-1.2-.2-1.6-.4z" fill="#c2000b"/><path d="m229.3 540.4c0-.7 0-1.3 0-1.8h.9v1.1c.3-.8.9-1.3 1.6-1.3h.3v1c-.1 0-.2 0-.4 0-.7 0-1.3.6-1.4 1.4v.5 3.1h-1z" fill="#c2000b"/><path d="m237.2 544.2c-.3.1-.9.3-1.7.3-1.8 0-2.9-1.2-2.9-3s1.2-3.1 3.1-3.1c.6 0 1.2.2 1.5.3l-.2.8c-.3-.1-.6-.3-1.2-.3-1.3 0-2.1 1-2.1 2.2 0 1.3.9 2.2 2 2.2.6 0 1-.2 1.3-.3z" fill="#c2000b"/><path d="m160.7 572h114.7v33.3h-114.7z" fill="none" stroke="#c2000b" stroke-miterlimit="10"/><path d="m189.4 588.5c0-.6 0-1.1 0-1.6h.9v.9c.3-.6.9-1.1 1.8-1.1.8 0 1.4.5 1.6 1.2.2-.3.4-.6.6-.8.3-.3.7-.4 1.3-.4.8 0 1.9.5 1.9 2.5v3.4h-1v-3.3c0-1.1-.4-1.8-1.3-1.8-.6 0-1.1.4-1.2 1 0 .1-.1.3-.1.5v3.6h-1v-3.5c0-.9-.4-1.6-1.2-1.6-.7 0-1.1.5-1.3 1.1-.1.2-.1.3-.1.5v3.5h-1v-4.1z" fill="#c2000b"/><path d="m202.6 592.7-.1-.7c-.3.5-.9.9-1.8.9-1.2 0-1.8-.8-1.8-1.7 0-1.4 1.2-2.2 3.5-2.2v-.1c0-.5-.1-1.3-1.3-1.3-.5 0-1.1.2-1.5.4l-.2-.7c.5-.3 1.2-.5 1.9-.5 1.8 0 2.2 1.2 2.2 2.4v2.2c0 .5 0 1 .1 1.4h-1zm-.1-3c-1.2 0-2.5.2-2.5 1.3 0 .7.5 1 1 1 .8 0 1.2-.5 1.4-1 0-.1.1-.2.1-.3z" fill="#c2000b"/><path d="m205.2 588.5c0-.6 0-1.1 0-1.6h.9l.1 1c.3-.6 1-1.1 1.9-1.1.8 0 2.1.5 2.1 2.5v3.5h-1.1v-3.3c0-.9-.3-1.7-1.3-1.7-.7 0-1.2.5-1.4 1.1 0 .1-.1.3-.1.5v3.5h-1.1z" fill="#c2000b"/><path d="m213.1 585.3c0 .4-.3.6-.7.6s-.6-.3-.6-.6c0-.4.3-.7.7-.7.3 0 .6.3.6.7zm-1.2 7.4v-5.8h1.1v5.8z" fill="#c2000b"/><path d="m214.8 592.7v-5h-.8v-.8h.8v-.3c0-.8.2-1.6.7-2 .4-.4.9-.5 1.4-.5.4 0 .7.1.9.2l-.1.8c-.2-.1-.4-.1-.7-.1-.9 0-1.1.8-1.1 1.7v.3h1.4v.8h-1.4v5h-1.1z" fill="#c2000b"/><path d="m218.6 590c0 1.4.9 2 2 2 .8 0 1.2-.1 1.6-.3l.2.8c-.4.2-1 .4-1.9.4-1.8 0-2.9-1.2-2.9-2.9 0-1.8 1-3.1 2.7-3.1 1.9 0 2.4 1.7 2.4 2.7v.5h-4.1zm3.1-.8c0-.7-.3-1.7-1.5-1.7-1.1 0-1.5 1-1.6 1.7z" fill="#c2000b"/><path d="m223.9 591.6c.3.2.9.4 1.4.4.8 0 1.1-.4 1.1-.9s-.3-.8-1.1-1.1c-1-.4-1.5-.9-1.5-1.6 0-.9.8-1.7 2-1.7.6 0 1.1.2 1.4.4l-.3.8c-.2-.1-.6-.3-1.2-.3s-1 .4-1 .8c0 .5.3.7 1.1 1 1 .4 1.5.9 1.5 1.8 0 1-.8 1.7-2.2 1.7-.6 0-1.2-.2-1.6-.4z" fill="#c2000b"/><path d="m230.1 585.2v1.7h1.5v.8h-1.5v3.1c0 .7.2 1.1.8 1.1.3 0 .5 0 .6-.1v.8c-.2.1-.5.1-.9.1-.5 0-.9-.2-1.1-.4-.3-.3-.4-.8-.4-1.5v-3.2h-.9v-.8h.9v-1.4z" fill="#c2000b"/><path d="m235.2 589.1v.8h-3v-.8z" fill="#c2000b"/><path d="m236.2 591.6c.3.2.9.4 1.4.4.8 0 1.1-.4 1.1-.9s-.3-.8-1.1-1.1c-1-.4-1.5-.9-1.5-1.6 0-.9.8-1.7 2-1.7.6 0 1.1.2 1.4.4l-.3.8c-.2-.1-.6-.3-1.2-.3s-1 .4-1 .8c0 .5.3.7 1.1 1 1 .4 1.5.9 1.5 1.8 0 1-.8 1.7-2.2 1.7-.6 0-1.2-.2-1.6-.4z" fill="#c2000b"/><path d="m241.1 588.7c0-.7 0-1.3 0-1.8h.9v1.1c.3-.8.9-1.3 1.6-1.3h.3v1c-.1 0-.2 0-.4 0-.7 0-1.3.6-1.4 1.4v.5 3.1h-1z" fill="#c2000b"/><path d="m249.1 592.5c-.3.1-.9.3-1.7.3-1.8 0-2.9-1.2-2.9-3s1.2-3.1 3.1-3.1c.6 0 1.2.2 1.5.3l-.2.8c-.3-.1-.6-.3-1.2-.3-1.3 0-2.1 1-2.1 2.2 0 1.3.9 2.2 2 2.2.6 0 1-.2 1.3-.3z" fill="#c2000b"/><path d="m2.3 572h114.7v33.3h-114.7z" fill="none" stroke="#13007c" stroke-miterlimit="10"/><path d="m12.5 589.2 5.6-2.9v.8l-4.7 2.4 4.7 2.4v.8l-5.6-2.9z" fill="#13007c"/><path d="m19.7 584.2h1.1v8.5h-1.1z" fill="#13007c"/><path d="m23.7 585.3c0 .4-.3.6-.7.6s-.6-.3-.6-.6c0-.4.3-.7.7-.7s.6.3.6.7zm-1.1 7.4v-5.8h1.1v5.8z" fill="#13007c"/><path d="m25.4 588.5c0-.6 0-1.1 0-1.6h.9l.1 1c.3-.6 1-1.1 1.9-1.1.8 0 2.1.5 2.1 2.5v3.5h-1.1v-3.3c0-.9-.3-1.7-1.3-1.7-.7 0-1.2.5-1.4 1.1 0 .1-.1.3-.1.5v3.5h-1.1z" fill="#13007c"/><path d="m33.1 589.6c.2-.2.4-.5.5-.7l1.7-2h1.3l-2.2 2.4 2.6 3.4h-1.3l-2-2.8-.5.6v2.2h-1v-8.5h1v5.4z" fill="#13007c"/><path d="m40.2 588.7c0-.7 0-1.3 0-1.8h.9v1.1c.3-.8.9-1.3 1.6-1.3h.3v1c-.1 0-.2 0-.4 0-.7 0-1.3.6-1.4 1.4v.5 3.1h-1z" fill="#13007c"/><path d="m44.6 590c0 1.4.9 2 2 2 .8 0 1.2-.1 1.6-.3l.2.8c-.4.2-1 .4-1.9.4-1.8 0-2.9-1.2-2.9-2.9 0-1.8 1-3.1 2.7-3.1 1.9 0 2.4 1.7 2.4 2.7v.5h-4.1zm3.1-.8c0-.7-.3-1.7-1.5-1.7-1.1 0-1.5 1-1.6 1.7z" fill="#13007c"/><path d="m50 584.2h1.1v8.5h-1.1z" fill="#13007c"/><path d="m52.5 588.7v-.7h6.2v.7zm0 2.3v-.7h6.2v.7z" fill="#13007c"/><path d="m60 588.5c0-.6 0-1.1 0-1.6h.9v.9c.3-.6.9-1.1 1.8-1.1.8 0 1.4.5 1.6 1.2.2-.3.4-.6.6-.8.3-.3.7-.4 1.3-.4.8 0 1.9.5 1.9 2.5v3.4h-1v-3.3c0-1.1-.4-1.8-1.3-1.8-.6 0-1.1.4-1.2 1 0 .1-.1.3-.1.5v3.6h-1v-3.5c0-.9-.4-1.6-1.2-1.6-.7 0-1.1.5-1.3 1.1-.1.2-.1.3-.1.5v3.5h-1v-4.1z" fill="#13007c"/><path d="m73.2 592.7-.1-.7c-.3.5-.9.9-1.8.9-1.2 0-1.8-.8-1.8-1.7 0-1.4 1.2-2.2 3.5-2.2v-.1c0-.5-.1-1.3-1.3-1.3-.5 0-1.1.2-1.5.4l-.2-.7c.5-.3 1.2-.5 1.9-.5 1.8 0 2.2 1.2 2.2 2.4v2.2c0 .5 0 1 .1 1.4h-1zm-.1-3c-1.2 0-2.5.2-2.5 1.3 0 .7.5 1 1 1 .8 0 1.2-.5 1.4-1 0-.1.1-.2.1-.3z" fill="#13007c"/><path d="m75.8 588.5c0-.6 0-1.1 0-1.6h.9l.1 1c.3-.6 1-1.1 1.9-1.1.8 0 2.1.5 2.1 2.5v3.5h-1.1v-3.3c0-.9-.3-1.7-1.3-1.7-.7 0-1.2.5-1.4 1.1 0 .1-.1.3-.1.5v3.5h-1.1z" fill="#13007c"/><path d="m83.6 585.3c0 .4-.3.6-.7.6s-.6-.3-.6-.6c0-.4.3-.7.7-.7s.6.3.6.7zm-1.1 7.4v-5.8h1.1v5.8z" fill="#13007c"/><path d="m85.4 592.7v-5h-.8v-.8h.8v-.3c0-.8.2-1.6.7-2 .4-.4.9-.5 1.4-.5.4 0 .7.1.9.2l-.1.8c-.2-.1-.4-.1-.7-.1-.9 0-1.1.8-1.1 1.7v.3h1.4v.8h-1.4v5h-1.1z" fill="#13007c"/><path d="m89.2 590c0 1.4.9 2 2 2 .8 0 1.2-.1 1.6-.3l.2.8c-.4.2-1 .4-1.9.4-1.8 0-2.9-1.2-2.9-2.9 0-1.8 1-3.1 2.7-3.1 1.9 0 2.4 1.7 2.4 2.7v.5h-4.1zm3.1-.8c0-.7-.3-1.7-1.5-1.7-1.1 0-1.5 1-1.6 1.7z" fill="#13007c"/><path d="m94.5 591.6c.3.2.9.4 1.4.4.8 0 1.1-.4 1.1-.9s-.3-.8-1.1-1.1c-1-.4-1.5-.9-1.5-1.6 0-.9.8-1.7 2-1.7.6 0 1.1.2 1.4.4l-.3.8c-.2-.1-.6-.3-1.2-.3s-1 .4-1 .8c0 .5.3.7 1.1 1 1 .4 1.5.9 1.5 1.8 0 1-.8 1.7-2.2 1.7-.6 0-1.2-.2-1.6-.4z" fill="#13007c"/><path d="m100.6 585.2v1.7h1.5v.8h-1.5v3.1c0 .7.2 1.1.8 1.1.3 0 .5 0 .6-.1v.8c-.2.1-.5.1-.9.1-.5 0-.9-.2-1.1-.4-.3-.3-.4-.8-.4-1.5v-3.2h-.9v-.8h.9v-1.4z" fill="#13007c"/><path d="m108.8 589.9-5.6 2.9v-.8l4.7-2.4-4.7-2.4v-.8l5.6 2.9z" fill="#13007c"/><path d="m2.3 152h114.7v33.3h-114.7z" fill="none" stroke="#13007c" stroke-miterlimit="10"/><path d="m40.2 169.2 5.6-2.9v.8l-4.7 2.4 4.7 2.4v.8l-5.6-2.9z" fill="#13007c"/><path d="m47.3 171.6c.3.2.9.4 1.4.4.8 0 1.1-.4 1.1-.9s-.3-.8-1.1-1.1c-1-.4-1.5-.9-1.5-1.6 0-.9.8-1.7 2-1.7.6 0 1.1.2 1.4.4l-.3.8c-.2-.1-.6-.3-1.2-.3s-1 .4-1 .8c0 .5.3.7 1.1 1 1 .4 1.5.9 1.5 1.8 0 1-.8 1.7-2.2 1.7-.6 0-1.2-.2-1.6-.4z" fill="#13007c"/><path d="m56.3 172.5c-.3.1-.9.3-1.7.3-1.8 0-2.9-1.2-2.9-3s1.2-3.1 3.1-3.1c.6 0 1.2.2 1.5.3l-.2.8c-.3-.1-.6-.3-1.2-.3-1.3 0-2.1 1-2.1 2.2 0 1.3.9 2.2 2 2.2.6 0 1-.2 1.3-.3z" fill="#13007c"/><path d="m57.6 168.7c0-.7 0-1.3 0-1.8h.9v1.1c.3-.8.9-1.3 1.6-1.3h.3v1c-.1 0-.2 0-.4 0-.7 0-1.3.6-1.4 1.4v.5 3.1h-1z" fill="#13007c"/><path d="m62.7 165.2c0 .4-.3.6-.7.6s-.6-.3-.6-.6c0-.4.3-.7.7-.7.4.1.6.4.6.7zm-1.2 7.5v-5.8h1.1v5.8z" fill="#13007c"/><path d="m64.4 168.8c0-.7 0-1.3 0-1.9h.9v1c.4-.7 1.1-1.1 2.1-1.1 1.4 0 2.5 1.2 2.5 3 0 2.1-1.3 3.1-2.6 3.1-.8 0-1.4-.3-1.8-.9v3.2h-1v-6.4zm1 1.5v.4c.2.7.8 1.2 1.6 1.2 1.1 0 1.8-.9 1.8-2.2 0-1.2-.6-2.2-1.7-2.2-.7 0-1.4.5-1.6 1.3 0 .1-.1.3-.1.4z" fill="#13007c"/><path d="m72.5 165.2v1.7h1.5v.8h-1.5v3.1c0 .7.2 1.1.8 1.1.3 0 .5 0 .6-.1v.8c-.2.1-.5.1-.9.1-.5 0-.9-.2-1.1-.4-.3-.3-.4-.8-.4-1.5v-3.2h-.9v-.8h.9v-1.4z" fill="#13007c"/><path d="m80.6 169.8-5.6 2.9v-.8l4.7-2.4-4.7-2.4v-.8l5.6 2.9z" fill="#13007c"/><path d="m2.3 200.3h114.7v33.3h-114.7z" fill="none" stroke="#13007c" stroke-miterlimit="10"/><path d="m42.1 217.5 5.6-2.9v.8l-4.7 2.4 4.7 2.4v.8l-5.6-2.9z" fill="#13007c"/><path d="m49.5 221v-5h-.8v-.8h.8v-.3c0-.8.2-1.6.7-2 .4-.4.9-.5 1.4-.5.4 0 .7.1.9.2l-.1.8c-.2-.1-.4-.1-.7-.1-.9 0-1.1.8-1.1 1.7v.3h1.4v.8h-1.4v5h-1.1z" fill="#13007c"/><path d="m57.9 218c0 2.1-1.5 3.1-2.9 3.1-1.6 0-2.8-1.2-2.8-3 0-1.9 1.3-3.1 2.9-3.1 1.7.1 2.8 1.3 2.8 3zm-4.6.1c0 1.3.7 2.2 1.8 2.2 1 0 1.8-.9 1.8-2.3 0-1-.5-2.2-1.7-2.2-1.3.1-1.9 1.2-1.9 2.3z" fill="#13007c"/><path d="m59.3 217c0-.7 0-1.3 0-1.8h.9v1.1c.3-.8.9-1.3 1.6-1.3h.3v1c-.1 0-.2 0-.4 0-.7 0-1.3.6-1.4 1.4v.5 3.1h-1z" fill="#13007c"/><path d="m63.3 216.8c0-.6 0-1.1 0-1.6h.9v.9c.3-.6.9-1.1 1.8-1.1.8 0 1.4.5 1.6 1.2.2-.3.4-.6.6-.8.3-.3.7-.4 1.3-.4.8 0 1.9.5 1.9 2.5v3.4h-1v-3.3c0-1.1-.4-1.8-1.3-1.8-.6 0-1.1.4-1.2 1 0 .1-.1.3-.1.5v3.6h-1v-3.5c0-.9-.4-1.6-1.2-1.6-.7 0-1.1.5-1.3 1.1-.1.2-.1.3-.1.5v3.5h-1v-4.1z" fill="#13007c"/><path d="m78.7 218.1-5.6 2.9v-.8l4.7-2.4-4.7-2.4v-.8l5.6 2.9z" fill="#13007c"/><path d="m2.3 248.7h114.7v33.3h-114.7z" fill="none" stroke="#13007c" stroke-miterlimit="10"/><path d="m39.9 270.1c-.7.3-1.3.5-2.1.5-2 0-3.6-1.4-3.6-3.7 0-2.5 1.7-4.6 4.4-4.6 2.1 0 3.5 1.5 3.5 3.5 0 1.8-1 2.9-2.1 2.9-.5 0-.9-.3-.9-1.1-.4.7-1 1.1-1.7 1.1s-1.3-.6-1.3-1.5c0-1.5 1.2-2.8 2.8-2.8.5 0 1 .1 1.3.3l-.4 2.2c-.2.9 0 1.3.4 1.3.6 0 1.3-.8 1.3-2.2 0-1.7-1-3-2.9-3-2 0-3.6 1.5-3.6 4 0 2 1.3 3.2 3.1 3.2.7 0 1.3-.1 1.8-.4zm-.6-5.2c-.1 0-.3-.1-.6-.1-1.1 0-1.9 1-1.9 2.2 0 .5.3.9.8.9.7 0 1.3-.9 1.5-1.6z" fill="#13007c"/><path d="m43.5 269.3v-5h-.8v-.8h.8v-.3c0-.8.2-1.6.7-2 .4-.4.9-.5 1.4-.5.4 0 .7.1.9.2l-.1.8c-.2-.1-.4-.1-.7-.1-.9 0-1.1.8-1.1 1.7v.3h1.4v.8h-1.4v5h-1.1z" fill="#13007c"/><path d="m52 266.4c0 2.1-1.5 3.1-2.9 3.1-1.6 0-2.8-1.2-2.8-3 0-1.9 1.3-3.1 2.9-3.1s2.8 1.2 2.8 3zm-4.7 0c0 1.3.7 2.2 1.8 2.2 1 0 1.8-.9 1.8-2.3 0-1-.5-2.2-1.7-2.2-1.3.1-1.9 1.2-1.9 2.3z" fill="#13007c"/><path d="m53.3 265.1c0-.6 0-1.1 0-1.6h.9l.1 1c.3-.6 1-1.1 1.9-1.1.8 0 2.1.5 2.1 2.5v3.5h-1.1v-3.4c0-.9-.3-1.7-1.3-1.7-.7 0-1.2.5-1.4 1.1 0 .1-.1.3-.1.5v3.5h-1.1z" fill="#13007c"/><path d="m61.2 261.9v1.7h1.5v.8h-1.5v3.1c0 .7.2 1.1.8 1.1.3 0 .5 0 .6-.1v.8c-.2.1-.5.1-.9.1-.5 0-.9-.2-1.1-.4-.3-.3-.4-.8-.4-1.5v-3.2h-.9v-.8h.9v-1.4z" fill="#13007c"/><path d="m66.3 265.7v.8h-3v-.8z" fill="#13007c"/><path d="m67.6 269.3v-5h-.8v-.8h.8v-.3c0-.8.2-1.6.7-2 .4-.4.9-.5 1.4-.5.4 0 .7.1.9.2l-.1.8c-.2-.1-.4-.1-.7-.1-.9 0-1.1.8-1.1 1.7v.3h1.3v.8h-1.4v5h-1z" fill="#13007c"/><path d="m74.2 269.3-.1-.7c-.3.5-.9.9-1.8.9-1.2 0-1.8-.8-1.8-1.7 0-1.4 1.2-2.2 3.5-2.2v-.1c0-.5-.1-1.3-1.3-1.3-.5 0-1.1.2-1.5.4l-.2-.7c.5-.3 1.2-.5 1.9-.5 1.8 0 2.2 1.2 2.2 2.4v2.2c0 .5 0 1 .1 1.4h-1zm-.1-2.9c-1.2 0-2.5.2-2.5 1.3 0 .7.5 1 1 1 .8 0 1.2-.5 1.4-1 0-.1.1-.2.1-.3z" fill="#13007c"/><path d="m80.9 269.1c-.3.1-.9.3-1.7.3-1.8 0-2.9-1.2-2.9-3s1.2-3.1 3.1-3.1c.6 0 1.2.2 1.5.3l-.2.8c-.3-.1-.6-.3-1.2-.3-1.3 0-2.1 1-2.1 2.2 0 1.3.9 2.2 2 2.2.6 0 1-.2 1.3-.3z" fill="#13007c"/><path d="m82.7 266.6c0 1.4.9 2 2 2 .8 0 1.2-.1 1.6-.3l.2.8c-.4.2-1 .4-1.9.4-1.8 0-2.9-1.2-2.9-2.9 0-1.8 1-3.1 2.7-3.1 1.9 0 2.4 1.7 2.4 2.7v.5h-4.1zm3.1-.7c0-.7-.3-1.7-1.5-1.7-1.1 0-1.5 1-1.6 1.7z" fill="#13007c"/><path d="m2.3 523.7h114.7v33.3h-114.7z" fill="none" stroke="#13007c" stroke-miterlimit="10"/><path d="m44.3 540.9 5.6-2.9v.8l-4.7 2.4 4.7 2.4v.8l-5.6-2.9z" fill="#13007c"/><path d="m52.7 536.9c0 .4-.3.6-.7.6s-.6-.3-.6-.6c0-.4.3-.7.7-.7.4.1.6.4.6.7zm-1.2 7.5v-5.8h1.1v5.8z" fill="#13007c"/><path d="m54.3 540.1c0-.6 0-1.1 0-1.6h.9v.9c.3-.6.9-1.1 1.8-1.1.8 0 1.4.5 1.6 1.2.2-.3.4-.6.6-.8.3-.3.7-.4 1.3-.4.8 0 1.9.5 1.9 2.5v3.4h-1v-3.3c0-1.1-.4-1.8-1.3-1.8-.6 0-1.1.4-1.2 1 0 .1-.1.3-.1.5v3.6h-1v-3.5c0-.9-.4-1.6-1.2-1.6-.7 0-1.1.5-1.3 1.1-.1.2-.1.3-.1.5v3.5h-1v-4.1z" fill="#13007c"/><path d="m69.4 538.6v1.6 3.4c0 1.3-.3 2.1-.8 2.7-.6.5-1.4.7-2.1.7s-1.5-.2-1.9-.5l.3-.8c.4.2 1 .5 1.7.5 1.1 0 1.9-.6 1.9-2v-.6c-.3.5-.9 1-1.8 1-1.4 0-2.5-1.2-2.5-2.8 0-2 1.3-3.1 2.6-3.1 1 0 1.6.5 1.8 1v-.9h.8zm-1.1 2.3c0-.2 0-.3-.1-.5-.2-.6-.7-1.1-1.5-1.1-1 0-1.7.9-1.7 2.2 0 1.1.6 2.1 1.7 2.1.6 0 1.2-.4 1.5-1.1.1-.2.1-.4.1-.6z" fill="#13007c"/><path d="m76.5 541.5-5.6 2.9v-.8l4.7-2.4-4.7-2.4v-.8l5.6 2.9z" fill="#13007c"/><path d="m2.3 297h114.7v46.1h-114.7z" fill="none" stroke="#13007c" stroke-miterlimit="10" stroke-width="1.1766"/><path d="m38.1 314.2 5.6-2.9v.8l-4.7 2.4 4.7 2.4v.8l-5.6-2.9z" fill="#13007c"/><path d="m46.5 310.2c0 .4-.3.6-.7.6s-.6-.3-.6-.6c0-.4.3-.7.7-.7.3.1.6.4.6.7zm-1.2 7.5v-5.8h1.1v5.8z" fill="#13007c"/><path d="m48.2 317.7v-5h-.8v-.8h.8v-.3c0-.8.2-1.6.7-2 .4-.4.9-.5 1.4-.5.4 0 .7.1.9.2l-.1.8c-.2-.1-.4-.1-.7-.1-.9 0-1.1.8-1.1 1.7v.3h1.4v.8h-1.4v5h-1.1z" fill="#13007c"/><path d="m51.6 313.7c0-.7 0-1.3 0-1.8h.9v1.1c.3-.8.9-1.3 1.6-1.3h.3v1c-.1 0-.2 0-.4 0-.7 0-1.3.6-1.4 1.4v.5 3.1h-1z" fill="#13007c"/><path d="m58.7 317.7-.1-.7c-.3.5-.9.9-1.8.9-1.2 0-1.8-.8-1.8-1.7 0-1.4 1.2-2.2 3.5-2.2v-.1c0-.5-.1-1.3-1.3-1.3-.5 0-1.1.2-1.5.4l-.2-.7c.5-.3 1.2-.5 1.9-.5 1.8 0 2.2 1.2 2.2 2.4v2.2c0 .5 0 1 .1 1.4h-1zm-.2-3c-1.2 0-2.5.2-2.5 1.3 0 .7.5 1 1 1 .8 0 1.2-.5 1.4-1 0-.1.1-.2.1-.3z" fill="#13007c"/><path d="m61.3 313.4c0-.6 0-1.1 0-1.6h.9v.9c.3-.6.9-1.1 1.8-1.1.8 0 1.4.5 1.6 1.2.2-.3.4-.6.6-.8.3-.3.7-.4 1.3-.4.8 0 1.9.5 1.9 2.5v3.4h-1v-3.3c0-1.1-.4-1.8-1.3-1.8-.6 0-1.1.4-1.2 1 0 .1-.1.3-.1.5v3.6h-1v-3.5c0-.9-.4-1.6-1.2-1.6-.7 0-1.1.5-1.3 1.1-.1.2-.1.3-.1.5v3.5h-1v-4.1z" fill="#13007c"/><path d="m71.9 315c0 1.4.9 2 2 2 .8 0 1.2-.1 1.6-.3l.2.8c-.4.2-1 .4-1.9.4-1.8 0-2.9-1.2-2.9-2.9 0-1.8 1-3.1 2.7-3.1 1.9 0 2.4 1.7 2.4 2.7v.5h-4.1zm3.1-.8c0-.7-.3-1.7-1.5-1.7-1.1 0-1.5 1-1.6 1.7z" fill="#13007c"/><path d="m82.8 314.8-5.6 2.9v-.8l4.7-2.4-4.7-2.4v-.8l5.6 2.9z" fill="#13007c"/><path d="m41.5 332.1-2.1-8.1h1.1l1 4.1c.2 1 .5 2 .6 2.8.1-.8.4-1.8.7-2.8l1.1-4.1h1.1l1 4.1c.2 1 .4 1.9.6 2.8.2-.9.4-1.8.6-2.8l1.1-4.1h1.1l-2.3 8.1h-1.1l-1-4.2c-.3-1-.4-1.8-.5-2.6-.1.8-.3 1.6-.6 2.6l-1.2 4.2z" fill="#13007c"/><path d="m55.2 329.1c0 2.1-1.5 3.1-2.9 3.1-1.6 0-2.8-1.2-2.8-3 0-1.9 1.3-3.1 2.9-3.1 1.7 0 2.8 1.2 2.8 3zm-4.6.1c0 1.3.7 2.2 1.8 2.2 1 0 1.8-.9 1.8-2.3 0-1-.5-2.2-1.7-2.2-1.4 0-1.9 1.2-1.9 2.3z" fill="#13007c"/><path d="m56.5 328.1c0-.7 0-1.3 0-1.8h.9v1.1c.3-.8.9-1.3 1.6-1.3h.3v1c-.1 0-.2 0-.4 0-.7 0-1.3.6-1.4 1.4v.5 3.1h-1z" fill="#13007c"/><path d="m61.6 328.9c.2-.2.4-.5.5-.7l1.7-2h1.3l-2.2 2.4 2.6 3.4h-1.3l-2-2.8-.5.6v2.2h-1v-8.5h1v5.4z" fill="#13007c"/><path d="m66.7 329.4c0 1.4.9 2 2 2 .8 0 1.2-.1 1.6-.3l.2.8c-.4.2-1 .4-1.9.4-1.8 0-2.9-1.2-2.9-2.9s1-3.1 2.7-3.1c1.9 0 2.4 1.7 2.4 2.7v.5h-4.1zm3.1-.8c0-.7-.3-1.7-1.5-1.7-1.1 0-1.5 1-1.6 1.7z" fill="#13007c"/><path d="m72.1 328.1c0-.7 0-1.3 0-1.8h.9v1.1c.3-.8.9-1.3 1.6-1.3h.3v1c-.1 0-.2 0-.4 0-.7 0-1.3.6-1.4 1.4v.5 3.1h-1z" fill="#13007c"/><path d="m78.4 323.7c-.9 1.2-1.5 2.7-1.5 4.9 0 2.1.7 3.7 1.5 4.9h-.8c-.8-1-1.6-2.5-1.6-4.9s.8-3.9 1.6-4.9z" fill="#13007c"/><path d="m78.8 333.5c.9-1.2 1.5-2.7 1.5-4.9 0-2.1-.6-3.7-1.5-4.9h.8c.8 1 1.6 2.5 1.6 4.9s-.8 3.9-1.6 4.9z" fill="#13007c"/><path d="m2.3 358.1h114.7v61.5h-114.7z" fill="none" stroke="#13007c" stroke-miterlimit="10" stroke-width="1.3582"/><path d="m38.1 374.3 5.6-2.9v.8l-4.7 2.4 4.7 2.4v.8l-5.6-2.9z" fill="#13007c"/><path d="m50.6 374.9c0 2.1-1.5 3.1-2.9 3.1-1.6 0-2.8-1.2-2.8-3 0-1.9 1.3-3.1 2.9-3.1 1.7 0 2.8 1.2 2.8 3zm-4.6 0c0 1.3.7 2.2 1.8 2.2 1 0 1.8-.9 1.8-2.3 0-1-.5-2.2-1.7-2.2-1.3.1-1.9 1.2-1.9 2.3z" fill="#13007c"/><path d="m51.9 377.8c0-.4 0-1 0-1.5v-7h1v3.6c.4-.6 1-1.1 2-1.1 1.4 0 2.5 1.2 2.4 3 0 2.1-1.3 3.1-2.6 3.1-.8 0-1.5-.3-1.9-1.1v1zm1.1-2.3v.4c.2.7.8 1.2 1.6 1.2 1.1 0 1.8-.9 1.8-2.2 0-1.2-.6-2.2-1.7-2.2-.7 0-1.4.5-1.6 1.3 0 .1-.1.3-.1.4z" fill="#13007c"/><path d="m57.4 379.5c.5 0 .9-.2 1.2-.4.3-.3.4-.8.4-2.2v-4.9h1v5.3c0 1.1-.2 1.9-.7 2.4s-1.2.7-1.8.7zm2.7-9.1c0 .3-.2.6-.7.6-.4 0-.6-.3-.6-.6 0-.4.3-.7.7-.7s.6.3.6.7z" fill="#13007c"/><path d="m62.3 375.1c0 1.4.9 2 2 2 .8 0 1.2-.1 1.6-.3l.2.8c-.4.2-1 .4-1.9.4-1.8 0-2.9-1.2-2.9-2.9 0-1.8 1-3.1 2.7-3.1 1.9 0 2.4 1.7 2.4 2.7v.5h-4.1zm3.1-.8c0-.7-.3-1.7-1.5-1.7-1.1 0-1.5 1-1.6 1.7z" fill="#13007c"/><path d="m71.9 377.6c-.3.1-.9.3-1.7.3-1.8 0-2.9-1.2-2.9-3s1.2-3.1 3.1-3.1c.6 0 1.2.2 1.5.3l-.2.8c-.3-.1-.6-.3-1.2-.3-1.3 0-2.1 1-2.1 2.2 0 1.3.9 2.2 2 2.2.6 0 1-.2 1.3-.3z" fill="#13007c"/><path d="m74.5 370.3v1.7h1.5v.8h-1.5v3.1c0 .7.2 1.1.8 1.1.3 0 .5 0 .6-.1v.8c-.2.1-.5.1-.9.1-.5 0-.9-.2-1.1-.4-.3-.3-.4-.8-.4-1.5v-3.2h-.9v-.7h.9v-1.4z" fill="#13007c"/><path d="m82.7 375-5.6 2.9v-.9l4.7-2.4-4.7-2.4v-.8l5.6 2.9z" fill="#13007c"/><path d="m36.5 388.7 5.6-2.9v.8l-4.7 2.4 4.7 2.4v.8l-5.6-2.9z" fill="#13007c"/><path d="m44.3 389.5c0 1.4.9 2 2 2 .8 0 1.2-.1 1.6-.3l.2.8c-.4.2-1 .4-1.9.4-1.8 0-2.9-1.2-2.9-2.9s1-3.1 2.7-3.1c1.9 0 2.4 1.7 2.4 2.7v.5h-4.1zm3.1-.8c0-.7-.3-1.7-1.5-1.7-1.1 0-1.5 1-1.6 1.7z" fill="#13007c"/><path d="m49.7 388c0-.6 0-1.1 0-1.6h.9v.9c.3-.6.9-1.1 1.8-1.1.8 0 1.4.5 1.6 1.2.2-.3.4-.6.6-.8.3-.3.7-.4 1.3-.4.8 0 1.9.5 1.9 2.5v3.4h-1v-3.3c0-1.1-.4-1.8-1.3-1.8-.6 0-1.1.4-1.2 1 0 .1-.1.3-.1.5v3.6h-1v-3.5c0-.9-.4-1.6-1.2-1.6-.7 0-1.1.5-1.3 1.1-.1.2-.1.3-.1.5v3.5h-1v-4.1z" fill="#13007c"/><path d="m59.7 392.2c0-.4 0-1 0-1.5v-7h1v3.6c.4-.6 1-1.1 2-1.1 1.4 0 2.5 1.2 2.4 3 0 2.1-1.3 3.1-2.6 3.1-.8 0-1.5-.3-1.9-1.1v1zm1.1-2.3v.4c.2.7.8 1.2 1.6 1.2 1.1 0 1.8-.9 1.8-2.2 0-1.2-.6-2.2-1.7-2.2-.7 0-1.4.5-1.6 1.3 0 .1-.1.3-.1.4z" fill="#13007c"/><path d="m67.2 389.5c0 1.4.9 2 2 2 .8 0 1.2-.1 1.6-.3l.2.8c-.4.2-1 .4-1.9.4-1.8 0-2.9-1.2-2.9-2.9s1-3.1 2.7-3.1c1.9 0 2.4 1.7 2.4 2.7v.5h-4.1zm3.1-.8c0-.7-.3-1.7-1.5-1.7-1.1 0-1.5 1-1.6 1.7z" fill="#13007c"/><path d="m77.6 383.7v7 1.5h-.9v-1c-.3.6-1 1.1-2 1.1-1.4 0-2.5-1.2-2.5-3 0-1.9 1.2-3.1 2.6-3.1.9 0 1.5.4 1.8.9v-3.5h1zm-1.1 5.1c0-.1 0-.3 0-.4-.2-.7-.7-1.2-1.5-1.2-1.1 0-1.7 1-1.7 2.2s.6 2.1 1.7 2.1c.7 0 1.4-.5 1.5-1.3 0-.1 0-.3 0-.5z" fill="#13007c"/><path d="m84.8 389.4-5.6 2.9v-.8l4.8-2.5-4.7-2.4v-.8l5.6 2.9v.7z" fill="#13007c"/><path d="m38.2 403.1 5.6-2.9v.8l-4.7 2.4 4.7 2.4v.8l-5.6-2.9z" fill="#13007c"/><path d="m48.6 406.6-.1-.7c-.3.5-.9.9-1.8.9-1.2 0-1.8-.8-1.8-1.7 0-1.4 1.2-2.2 3.5-2.2v-.1c0-.5-.1-1.3-1.3-1.3-.5 0-1.1.2-1.5.4l-.2-.7c.5-.3 1.2-.5 1.9-.5 1.8 0 2.2 1.2 2.2 2.4v2.2c0 .5 0 1 .1 1.4h-1zm-.1-2.9c-1.2 0-2.5.2-2.5 1.3 0 .7.5 1 1 1 .8 0 1.2-.5 1.4-1 0-.1.1-.2.1-.3z" fill="#13007c"/><path d="m51.2 402.7c0-.7 0-1.3 0-1.9h.9v1c.4-.7 1.1-1.1 2.1-1.1 1.4 0 2.5 1.2 2.5 3 0 2.1-1.3 3.1-2.6 3.1-.8 0-1.4-.3-1.8-.9v3.2h-1v-6.4zm1 1.5v.4c.2.7.8 1.2 1.6 1.2 1.1 0 1.8-.9 1.8-2.2 0-1.2-.6-2.2-1.7-2.2-.7 0-1.4.5-1.6 1.3 0 .1-.1.3-.1.4z" fill="#13007c"/><path d="m58 402.7c0-.7 0-1.3 0-1.9h.9v1c.4-.7 1.1-1.1 2.1-1.1 1.4 0 2.5 1.2 2.5 3 0 2.1-1.3 3.1-2.6 3.1-.8 0-1.4-.3-1.8-.9v3.2h-1v-6.4zm1.1 1.5v.4c.2.7.8 1.2 1.6 1.2 1.1 0 1.8-.9 1.8-2.2 0-1.2-.6-2.2-1.7-2.2-.7 0-1.4.5-1.6 1.3 0 .1-.1.3-.1.4z" fill="#13007c"/><path d="m64.9 398.1h1.1v8.5h-1.1z" fill="#13007c"/><path d="m68.3 403.9c0 1.4.9 2 2 2 .8 0 1.2-.1 1.6-.3l.2.8c-.4.2-1 .4-1.9.4-1.8 0-2.9-1.2-2.9-2.9 0-1.8 1-3.1 2.7-3.1 1.9 0 2.4 1.7 2.4 2.7v.5h-4.1zm3.1-.8c0-.7-.3-1.7-1.5-1.7-1.1 0-1.5 1-1.6 1.7z" fill="#13007c"/><path d="m75 399.1v1.7h1.5v.8h-1.5v3.1c0 .7.2 1.1.8 1.1.3 0 .5 0 .6-.1v.8c-.2.1-.5.1-.9.1-.5 0-.9-.2-1.1-.4-.3-.3-.4-.8-.4-1.5v-3.2h-1v-.8h.9v-1.4z" fill="#13007c"/><path d="m83.2 403.8-5.6 2.9v-.8l4.7-2.4-4.7-2.4v-.8l5.6 2.9z" fill="#13007c"/><path d="m2.3 434.6h114.7v74.1h-114.7z" fill="none" stroke="#13007c" stroke-miterlimit="10" stroke-width="1.4907"/><path d="m40.1 449.8 5.6-2.9v.8l-4.7 2.4 4.7 2.4v.8l-5.6-2.9z" fill="#13007c"/><path d="m47.7 447.5 1.1 3.3c.2.5.3 1 .5 1.5.1-.5.3-1 .5-1.5l1.1-3.3h1.1l-2.3 5.8h-1l-2.2-5.8z" fill="#13007c"/><path d="m54.3 445.9c0 .4-.3.6-.7.6s-.6-.3-.6-.6c0-.4.3-.7.7-.7.3 0 .6.3.6.7zm-1.2 7.4v-5.8h1.1v5.8z" fill="#13007c"/><path d="m60.9 444.8v7 1.5h-.9v-1c-.3.6-1 1.1-2 1.1-1.4 0-2.5-1.2-2.5-3 0-1.9 1.2-3.1 2.6-3.1.9 0 1.5.4 1.8.9v-3.5h1zm-1 5.1c0-.1 0-.3 0-.4-.2-.7-.7-1.2-1.5-1.2-1.1 0-1.7 1-1.7 2.2s.6 2.1 1.7 2.1c.7 0 1.4-.5 1.5-1.3 0-.1 0-.3 0-.5z" fill="#13007c"/><path d="m63.3 450.6c0 1.4.9 2 2 2 .8 0 1.2-.1 1.6-.3l.2.8c-.4.2-1 .4-1.9.4-1.8 0-2.9-1.2-2.9-2.9 0-1.8 1-3.1 2.7-3.1 1.9 0 2.4 1.7 2.4 2.7v.5h-4.1zm3.1-.8c0-.7-.3-1.7-1.5-1.7-1.1 0-1.5 1-1.6 1.7z" fill="#13007c"/><path d="m73.9 450.4c0 2.1-1.5 3.1-2.9 3.1-1.6 0-2.8-1.2-2.8-3 0-1.9 1.3-3.1 2.9-3.1 1.7 0 2.8 1.2 2.8 3zm-4.6 0c0 1.3.7 2.2 1.8 2.2 1 0 1.8-.9 1.8-2.3 0-1-.5-2.2-1.7-2.2-1.3.1-1.9 1.2-1.9 2.3z" fill="#13007c"/><path d="m80.8 450.5-5.6 2.9v-.8l4.7-2.4-4.7-2.4v-.8l5.6 2.9z" fill="#13007c"/><path d="m40 464.2 5.6-2.9v.8l-4.7 2.4 4.7 2.4v.8l-5.6-2.9z" fill="#13007c"/><path d="m50.5 467.7-.1-.7c-.3.5-.9.9-1.8.9-1.2 0-1.8-.8-1.8-1.7 0-1.4 1.2-2.2 3.5-2.2v-.1c0-.5-.1-1.3-1.3-1.3-.5 0-1.1.2-1.5.4l-.2-.7c.5-.3 1.2-.5 1.9-.5 1.8 0 2.2 1.2 2.2 2.4v2.2c0 .5 0 1 .1 1.4h-1zm-.2-3c-1.2 0-2.5.2-2.5 1.3 0 .7.5 1 1 1 .8 0 1.2-.5 1.4-1 0-.1.1-.2.1-.3z" fill="#13007c"/><path d="m57.9 466.1v1.6h-.9l-.1-.9c-.3.5-.9 1.1-1.9 1.1-.9 0-2-.5-2-2.5v-3.4h1.1v3.2c0 1.1.3 1.8 1.3 1.8.7 0 1.2-.5 1.4-1 .1-.2.1-.3.1-.5v-3.6h1.1v4.2z" fill="#13007c"/><path d="m64.7 459.2v7 1.5h-.9v-1c-.3.6-1 1.1-2 1.1-1.4 0-2.5-1.2-2.5-3 0-1.9 1.2-3.1 2.6-3.1.9 0 1.5.4 1.8.9v-3.5h1zm-1.1 5.1c0-.1 0-.3 0-.4-.2-.7-.7-1.2-1.5-1.2-1.1 0-1.7 1-1.7 2.2s.6 2.1 1.7 2.1c.7 0 1.4-.5 1.5-1.3 0-.1 0-.3 0-.5z" fill="#13007c"/><path d="m67.6 460.3c0 .4-.3.6-.7.6s-.6-.3-.6-.6c0-.4.3-.7.7-.7.3 0 .6.3.6.7zm-1.2 7.4v-5.8h1.1v5.8z" fill="#13007c"/><path d="m74.5 464.8c0 2.1-1.5 3.1-2.9 3.1-1.6 0-2.8-1.2-2.8-3 0-1.9 1.3-3.1 2.9-3.1 1.7 0 2.8 1.2 2.8 3zm-4.6 0c0 1.3.7 2.2 1.8 2.2 1 0 1.8-.9 1.8-2.3 0-1-.5-2.2-1.7-2.2-1.4.1-1.9 1.2-1.9 2.3z" fill="#13007c"/><path d="m81.3 464.9-5.6 2.9v-.8l4.7-2.4-4.7-2.4v-.8l5.6 2.9z" fill="#13007c"/><path d="m37.8 478.6 5.6-2.9v.8l-4.7 2.4 4.7 2.4v.8l-5.6-2.9z" fill="#13007c"/><path d="m44.9 481c.3.2.9.4 1.4.4.8 0 1.1-.4 1.1-.9s-.3-.8-1.1-1.1c-1-.4-1.5-.9-1.5-1.6 0-.9.8-1.7 2-1.7.6 0 1.1.2 1.4.4l-.3.8c-.2-.1-.6-.3-1.2-.3s-1 .4-1 .8c0 .5.3.7 1.1 1 1 .4 1.5.9 1.5 1.8 0 1-.8 1.7-2.2 1.7-.6 0-1.2-.2-1.6-.4z" fill="#13007c"/><path d="m55 479.2c0 2.1-1.5 3.1-2.9 3.1-1.6 0-2.8-1.2-2.8-3 0-1.9 1.3-3.1 2.9-3.1 1.7 0 2.8 1.2 2.8 3zm-4.6 0c0 1.3.7 2.2 1.8 2.2 1 0 1.8-.9 1.8-2.3 0-1-.5-2.2-1.7-2.2-1.4.1-1.9 1.2-1.9 2.3z" fill="#13007c"/><path d="m61.2 480.5v1.6h-.9l-.1-.9c-.3.5-.9 1.1-1.9 1.1-.9 0-2-.5-2-2.5v-3.4h1.1v3.2c0 1.1.3 1.8 1.3 1.8.7 0 1.2-.5 1.4-1 .1-.2.1-.3.1-.5v-3.6h1.1v4.2z" fill="#13007c"/><path d="m63 478.1c0-.7 0-1.3 0-1.8h.9v1.1c.3-.8.9-1.3 1.6-1.3h.3v1c-.1 0-.2 0-.4 0-.7 0-1.3.6-1.4 1.4v.5 3.1h-1z" fill="#13007c"/><path d="m70.9 481.9c-.3.1-.9.3-1.7.3-1.8 0-2.9-1.2-2.9-3s1.2-3.1 3.1-3.1c.6 0 1.2.2 1.5.3l-.2.8c-.3-.1-.6-.3-1.2-.3-1.3 0-2.1 1-2.1 2.2 0 1.3.9 2.2 2 2.2.6 0 1-.2 1.3-.3z" fill="#13007c"/><path d="m72.7 479.4c0 1.4.9 2 2 2 .8 0 1.2-.1 1.6-.3l.2.8c-.4.2-1 .4-1.9.4-1.8 0-2.9-1.2-2.9-2.9 0-1.8 1-3.1 2.7-3.1 1.9 0 2.4 1.7 2.4 2.7v.5h-4.1zm3-.8c0-.7-.3-1.7-1.5-1.7-1.1 0-1.5 1-1.6 1.7z" fill="#13007c"/><path d="m83.6 479.2-5.6 2.9v-.8l4.7-2.4-4.7-2.4v-.8l5.6 2.9z" fill="#13007c"/><path d="m42 493 5.6-2.9v.8l-4.7 2.4 4.7 2.4v.8l-5.6-2.9z" fill="#13007c"/><path d="m50.5 489v1.7h1.5v.8h-1.5v3.1c0 .7.2 1.1.8 1.1.3 0 .5 0 .6-.1v.8c-.2.1-.5.1-.9.1-.5 0-.9-.2-1.1-.4-.3-.3-.4-.8-.4-1.5v-3.2h-.9v-.8h.9v-1.4z" fill="#13007c"/><path d="m53.2 492.5c0-.7 0-1.3 0-1.8h.9v1.1c.3-.8.9-1.3 1.6-1.3h.3v1c-.1 0-.2 0-.4 0-.7 0-1.3.6-1.4 1.4v.5 3.1h-1z" fill="#13007c"/><path d="m60.3 496.5-.1-.7c-.3.5-.9.9-1.8.9-1.2 0-1.8-.8-1.8-1.7 0-1.4 1.2-2.2 3.5-2.2v-.1c0-.5-.1-1.3-1.3-1.3-.5 0-1.1.2-1.5.4l-.2-.7c.5-.3 1.2-.5 1.9-.5 1.8 0 2.2 1.2 2.2 2.4v2.2c0 .5 0 1 .1 1.4h-1zm-.2-3c-1.2 0-2.5.2-2.5 1.3 0 .7.5 1 1 1 .8 0 1.2-.5 1.4-1 0-.1.1-.2.1-.3z" fill="#13007c"/><path d="m67 496.3c-.3.1-.9.3-1.7.3-1.8 0-2.9-1.2-2.9-3s1.2-3.1 3.1-3.1c.6 0 1.2.2 1.5.3l-.2.8c-.3-.1-.6-.3-1.2-.3-1.3 0-2.1 1-2.1 2.2 0 1.3.9 2.2 2 2.2.6 0 1-.2 1.3-.3z" fill="#13007c"/><path d="m69.3 493.4c.2-.2.4-.5.5-.7l1.7-2h1.3l-2.2 2.4 2.6 3.4h-1.3l-2-2.8-.5.6v2.2h-1v-8.5h1v5.4z" fill="#13007c"/><path d="m79.3 493.7-5.6 2.9v-.8l4.7-2.4-4.7-2.4v-.8l5.6 2.9z" fill="#13007c"/><path d="m2.3 629.4h273v34h-273z" fill="none" stroke="#008837" stroke-miterlimit="10"/><path d="m112.4 642.2v7 1.5h-.9v-1c-.3.6-1 1.1-2 1.1-1.4 0-2.5-1.2-2.5-3 0-1.9 1.2-3.1 2.6-3.1.9 0 1.5.4 1.8.9v-3.5h1zm-1.1 5.1c0-.1 0-.3 0-.4-.2-.7-.7-1.2-1.5-1.2-1.1 0-1.7 1-1.7 2.2s.6 2.1 1.7 2.1c.7 0 1.4-.5 1.5-1.3 0-.1 0-.3 0-.5z" fill="#008837"/><path d="m114.7 648c0 1.4.9 2 2 2 .8 0 1.2-.1 1.6-.3l.2.8c-.4.2-1 .4-1.9.4-1.8 0-2.9-1.2-2.9-2.9 0-1.8 1-3.1 2.7-3.1 1.9 0 2.4 1.7 2.4 2.7v.5h-4.1zm3.1-.8c0-.7-.3-1.7-1.5-1.7-1.1 0-1.5 1-1.6 1.7z" fill="#008837"/><path d="m120.2 650.7v-5h-.8v-.8h.8v-.3c0-.8.2-1.6.7-2 .4-.4.9-.5 1.4-.5.4 0 .7.1.9.2l-.1.8c-.2-.1-.4-.1-.7-.1-.9 0-1.1.8-1.1 1.7v.3h1.4v.8h-1.4v5h-1.1z" fill="#008837"/><path d="m126.9 650.7-.1-.7c-.3.5-.9.9-1.8.9-1.2 0-1.8-.8-1.8-1.7 0-1.4 1.2-2.2 3.5-2.2v-.1c0-.5-.1-1.3-1.3-1.3-.5 0-1.1.2-1.5.4l-.2-.7c.5-.3 1.2-.5 1.9-.5 1.8 0 2.2 1.2 2.2 2.4v2.2c0 .5 0 1 .1 1.4h-1zm-.2-3c-1.2 0-2.5.2-2.5 1.3 0 .7.5 1 1 1 .8 0 1.2-.5 1.4-1 0-.1.1-.2.1-.3z" fill="#008837"/><path d="m134.3 649.1v1.6h-.9l-.1-.9c-.3.5-.9 1.1-1.9 1.1-.9 0-2-.5-2-2.5v-3.4h1.1v3.2c0 1.1.3 1.8 1.3 1.8.7 0 1.2-.5 1.4-1 .1-.2.1-.3.1-.5v-3.6h1.1v4.2z" fill="#008837"/><path d="m136 642.2h1.1v8.5h-1.1z" fill="#008837"/><path d="m140.1 643.2v1.7h1.5v.8h-1.5v3.1c0 .7.2 1.1.8 1.1.3 0 .5 0 .6-.1v.8c-.2.1-.5.1-.9.1-.5 0-.9-.2-1.1-.4-.3-.3-.4-.8-.4-1.5v-3.2h-.9v-.8h.9v-1.4z" fill="#008837"/><path d="m145.2 647.1v.8h-3v-.8z" fill="#008837"/><path d="m146.3 649.6c.3.2.9.4 1.4.4.8 0 1.1-.4 1.1-.9s-.3-.8-1.1-1.1c-1-.4-1.5-.9-1.5-1.6 0-.9.8-1.7 2-1.7.6 0 1.1.2 1.4.4l-.3.8c-.2-.1-.6-.3-1.2-.3s-1 .4-1 .8c0 .5.3.7 1.1 1 1 .4 1.5.9 1.5 1.8 0 1-.8 1.7-2.2 1.7-.6 0-1.2-.2-1.6-.4z" fill="#008837"/><path d="m151.2 646.7c0-.7 0-1.3 0-1.8h.9v1.1c.3-.8.9-1.3 1.6-1.3h.3v1c-.1 0-.2 0-.4 0-.7 0-1.3.6-1.4 1.4v.5 3.1h-1z" fill="#008837"/><path d="m159.2 650.5c-.3.1-.9.3-1.7.3-1.8 0-2.9-1.2-2.9-3s1.2-3.1 3.1-3.1c.6 0 1.2.2 1.5.3l-.2.8c-.3-.1-.6-.3-1.2-.3-1.3 0-2.1 1-2.1 2.2 0 1.3.9 2.2 2 2.2.6 0 1-.2 1.3-.3z" fill="#008837"/><path d="m311 240.8h188v158.6h-188z" fill="none" stroke="#82027e" stroke-miterlimit="10"/><g fill="#82027e"><path d="m369.1 264.7 5.6-2.9v.8l-4.7 2.4 4.7 2.4v.8l-5.6-2.9z"/><path d="m376.4 259.7h1.1v3.6c.2-.3.4-.6.8-.7.3-.2.7-.3 1.1-.3.8 0 2 .5 2 2.5v3.5h-1.1v-3.3c0-.9-.3-1.7-1.3-1.7-.7 0-1.2.5-1.4 1.1-.1.1-.1.3-.1.5v3.5h-1.1z"/><path d="m388.3 265.2c0 2.1-1.5 3.1-2.9 3.1-1.6 0-2.8-1.2-2.8-3 0-1.9 1.3-3.1 2.9-3.1 1.7.1 2.8 1.3 2.8 3zm-4.6.1c0 1.3.7 2.2 1.8 2.2 1 0 1.8-.9 1.8-2.3 0-1-.5-2.2-1.7-2.2-1.4 0-1.9 1.2-1.9 2.3z"/><path d="m389.5 267.1c.3.2.9.4 1.4.4.8 0 1.1-.4 1.1-.9s-.3-.8-1.1-1.1c-1-.4-1.5-.9-1.5-1.6 0-.9.8-1.7 2-1.7.6 0 1.1.2 1.4.4l-.3.8c-.2-.1-.6-.3-1.2-.3s-1 .4-1 .8c0 .5.3.7 1.1 1 1 .4 1.5.9 1.5 1.8 0 1-.8 1.7-2.2 1.7-.6 0-1.2-.2-1.6-.4z"/><path d="m395.6 260.7v1.7h1.5v.8h-1.5v3.1c0 .7.2 1.1.8 1.1.3 0 .5 0 .6-.1v.8c-.2.1-.5.1-.9.1-.5 0-.9-.2-1.1-.4-.3-.3-.4-.8-.4-1.5v-3.2h-.9v-.8h.9v-1.3z"/><path d="m400.7 264.6v.8h-3v-.8z"/><path d="m401.8 267.1c.3.2.9.4 1.4.4.8 0 1.1-.4 1.1-.9s-.3-.8-1.1-1.1c-1-.4-1.5-.9-1.5-1.6 0-.9.8-1.7 2-1.7.6 0 1.1.2 1.4.4l-.3.8c-.2-.1-.6-.3-1.2-.3s-1 .4-1 .8c0 .5.3.7 1.1 1 1 .4 1.5.9 1.5 1.8 0 1-.8 1.7-2.2 1.7-.6 0-1.2-.2-1.6-.4z"/><path d="m412 265.2c0 2.1-1.5 3.1-2.9 3.1-1.6 0-2.8-1.2-2.8-3 0-1.9 1.3-3.1 2.9-3.1 1.6.1 2.8 1.3 2.8 3zm-4.6.1c0 1.3.7 2.2 1.8 2.2 1 0 1.8-.9 1.8-2.3 0-1-.5-2.2-1.7-2.2-1.4 0-1.9 1.2-1.9 2.3z"/><path d="m418.2 266.6v1.6h-.9l-.1-.9c-.3.5-.9 1.1-1.9 1.1-.9 0-2-.5-2-2.5v-3.4h1.1v3.2c0 1.1.3 1.8 1.3 1.8.7 0 1.2-.5 1.4-1 .1-.2.1-.3.1-.5v-3.6h1.1v4.2z"/><path d="m419.9 264.2c0-.7 0-1.3 0-1.8h.9v1.1c.3-.8.9-1.3 1.6-1.3h.3v1c-.1 0-.2 0-.4 0-.7 0-1.3.6-1.4 1.4v.5 3.1h-1z"/><path d="m427.9 268c-.3.1-.9.3-1.7.3-1.8 0-2.9-1.2-2.9-3s1.2-3.1 3.1-3.1c.6 0 1.2.2 1.5.3l-.2.8c-.3-.1-.6-.3-1.2-.3-1.3 0-2.1 1-2.1 2.2 0 1.3.9 2.2 2 2.2.6 0 1-.2 1.3-.3z"/><path d="m429.6 265.5c0 1.4.9 2 2 2 .8 0 1.2-.1 1.6-.3l.2.8c-.4.2-1 .4-1.9.4-1.8 0-2.9-1.2-2.9-2.9 0-1.8 1-3.1 2.7-3.1 1.9 0 2.4 1.7 2.4 2.7v.5h-4.1zm3.1-.8c0-.7-.3-1.7-1.5-1.7-1.1 0-1.5 1-1.6 1.7z"/><path d="m440.5 265.3-5.6 2.9v-.8l4.7-2.4-4.7-2.4v-.8l5.6 2.9z"/><path d="m360.5 279.1 5.6-2.9v.8l-4.7 2.4 4.7 2.4v.8l-5.6-2.9z"/><path d="m367.6 281.5c.3.2.9.4 1.4.4.8 0 1.1-.4 1.1-.9s-.3-.8-1.1-1.1c-1-.4-1.5-.9-1.5-1.6 0-.9.8-1.7 2-1.7.6 0 1.1.2 1.4.4l-.3.8c-.2-.1-.6-.3-1.2-.3s-1 .4-1 .8c0 .5.3.7 1.1 1 1 .4 1.5.9 1.5 1.8 0 1-.8 1.7-2.2 1.7-.6 0-1.2-.2-1.6-.4z"/><path d="m376.6 282.4c-.3.1-.9.3-1.7.3-1.8 0-2.9-1.2-2.9-3s1.2-3.1 3.1-3.1c.6 0 1.2.2 1.5.3l-.2.8c-.3-.1-.6-.3-1.2-.3-1.3 0-2.1 1-2.1 2.2 0 1.3.9 2.2 2 2.2.6 0 1-.2 1.3-.3z"/><path d="m377.9 274.1h1.1v3.6c.2-.3.4-.6.8-.7.3-.2.7-.3 1.1-.3.8 0 2 .5 2 2.5v3.5h-1.1v-3.3c0-.9-.3-1.7-1.3-1.7-.7 0-1.2.5-1.4 1.1-.1.1-.1.3-.1.5v3.5h-1.1z"/><path d="m385.1 279.9c0 1.4.9 2 2 2 .8 0 1.2-.1 1.6-.3l.2.8c-.4.2-1 .4-1.9.4-1.8 0-2.9-1.2-2.9-2.9s1-3.1 2.7-3.1c1.9 0 2.4 1.7 2.4 2.7v.5h-4.1zm3.1-.8c0-.7-.3-1.7-1.5-1.7-1.1 0-1.5 1-1.6 1.7z"/><path d="m390.6 278.4c0-.6 0-1.1 0-1.6h.9v.9c.3-.6.9-1.1 1.8-1.1.8 0 1.4.5 1.6 1.2.2-.3.4-.6.6-.8.3-.3.7-.4 1.3-.4.8 0 1.9.5 1.9 2.5v3.4h-1v-3.3c0-1.1-.4-1.8-1.3-1.8-.6 0-1.1.4-1.2 1 0 .1-.1.3-.1.5v3.6h-1v-3.5c0-.9-.4-1.6-1.2-1.6-.7 0-1.1.5-1.3 1.1-.1.2-.1.3-.1.5v3.5h-1v-4.1z"/><path d="m401.1 279.9c0 1.4.9 2 2 2 .8 0 1.2-.1 1.6-.3l.2.8c-.4.2-1 .4-1.9.4-1.8 0-2.9-1.2-2.9-2.9s1-3.1 2.7-3.1c1.9 0 2.4 1.7 2.4 2.7v.5h-4.1zm3.1-.8c0-.7-.3-1.7-1.5-1.7-1.1 0-1.5 1-1.6 1.7z"/><path d="m409.4 279v.8h-3v-.8z"/><path d="m410.4 281.5c.3.2.9.4 1.4.4.8 0 1.1-.4 1.1-.9s-.3-.8-1.1-1.1c-1-.4-1.5-.9-1.5-1.6 0-.9.8-1.7 2-1.7.6 0 1.1.2 1.4.4l-.3.8c-.2-.1-.6-.3-1.2-.3s-1 .4-1 .8c0 .5.3.7 1.1 1 1 .4 1.5.9 1.5 1.8 0 1-.8 1.7-2.2 1.7-.6 0-1.2-.2-1.6-.4z"/><path d="m420.6 279.6c0 2.1-1.5 3.1-2.9 3.1-1.6 0-2.8-1.2-2.8-3 0-1.9 1.3-3.1 2.9-3.1 1.7.1 2.8 1.3 2.8 3zm-4.6.1c0 1.3.7 2.2 1.8 2.2 1 0 1.8-.9 1.8-2.3 0-1-.5-2.2-1.7-2.2-1.4 0-1.9 1.2-1.9 2.3z"/><path d="m426.8 281v1.6h-.9l-.1-.9c-.3.5-.9 1.1-1.9 1.1-.9 0-2-.5-2-2.5v-3.4h1.1v3.2c0 1.1.3 1.8 1.3 1.8.7 0 1.2-.5 1.4-1 .1-.2.1-.3.1-.5v-3.6h1.1v4.2z"/><path d="m428.5 278.6c0-.7 0-1.3 0-1.8h.9v1.1c.3-.8.9-1.3 1.6-1.3h.3v1c-.1 0-.2 0-.4 0-.7 0-1.3.6-1.4 1.4v.5 3.1h-1z"/><path d="m436.5 282.4c-.3.1-.9.3-1.7.3-1.8 0-2.9-1.2-2.9-3s1.2-3.1 3.1-3.1c.6 0 1.2.2 1.5.3l-.2.8c-.3-.1-.6-.3-1.2-.3-1.3 0-2.1 1-2.1 2.2 0 1.3.9 2.2 2 2.2.6 0 1-.2 1.3-.3z"/><path d="m438.2 279.9c0 1.4.9 2 2 2 .8 0 1.2-.1 1.6-.3l.2.8c-.4.2-1 .4-1.9.4-1.8 0-2.9-1.2-2.9-2.9s1-3.1 2.7-3.1c1.9 0 2.4 1.7 2.4 2.7v.5h-4.1zm3.1-.8c0-.7-.3-1.7-1.5-1.7-1.1 0-1.5 1-1.6 1.7z"/><path d="m449.1 279.7-5.6 2.9v-.8l4.7-2.4-4.7-2.4v-.8l5.6 2.9z"/><path d="m395.3 288.8-.2 2.9h-.6l-.2-2.9z"/><path d="m396.7 295.9c.3.2.9.4 1.4.4.8 0 1.1-.4 1.1-.9s-.3-.8-1.1-1.1c-1-.4-1.5-.9-1.5-1.6 0-.9.8-1.7 2-1.7.6 0 1.1.2 1.4.4l-.3.8c-.2-.1-.6-.3-1.2-.3s-1 .4-1 .8c0 .5.3.7 1.1 1 1 .4 1.5.9 1.5 1.8 0 1-.8 1.7-2.2 1.7-.6 0-1.2-.2-1.6-.4z"/><path d="m402.2 294.3c0 1.4.9 2 2 2 .8 0 1.2-.1 1.6-.3l.2.8c-.4.2-1 .4-1.9.4-1.8 0-2.9-1.2-2.9-2.9 0-1.8 1-3.1 2.7-3.1 1.9 0 2.4 1.7 2.4 2.7v.5h-4.1zm3.1-.8c0-.7-.3-1.7-1.5-1.7-1.1 0-1.5 1-1.6 1.7z"/><path d="m407.6 288.5h1.1v8.5h-1.1z"/><path d="m410.5 297v-5h-.8v-.8h.8v-.3c0-.8.2-1.6.7-2 .4-.4.9-.5 1.4-.5.4 0 .7.1.9.2l-.1.8c-.2-.1-.4-.1-.7-.1-.9 0-1.1.8-1.1 1.7v.3h1.4v.8h-1.4v5h-1.1z"/><path d="m415.4 288.8-.2 2.9h-.6l-.2-2.9z"/><path d="m371.7 303.2-.2 2.9h-.6l-.2-2.9z"/><path d="m378.1 309.8v1.6h-.9l-.1-.9c-.3.5-.9 1.1-1.9 1.1-.9 0-2-.5-2-2.5v-3.4h1.1v3.2c0 1.1.3 1.8 1.3 1.8.7 0 1.2-.5 1.4-1 .1-.2.1-.3.1-.5v-3.6h1.1v4.2z"/><path d="m379.8 307.2c0-.6 0-1.1 0-1.6h.9l.1 1c.3-.6 1-1.1 1.9-1.1.8 0 2.1.5 2.1 2.5v3.5h-1.1v-3.5c0-.9-.3-1.7-1.3-1.7-.7 0-1.2.5-1.4 1.1 0 .1-.1.3-.1.5v3.5h-1.1z"/><path d="m386.4 310.3c.3.2.9.4 1.4.4.8 0 1.1-.4 1.1-.9s-.3-.8-1.1-1.1c-1-.4-1.5-.9-1.5-1.6 0-.9.8-1.7 2-1.7.6 0 1.1.2 1.4.4l-.3.8c-.2-.1-.6-.3-1.2-.3s-1 .4-1 .8c0 .5.3.7 1.1 1 1 .4 1.5.9 1.5 1.8 0 1-.8 1.7-2.2 1.7-.6 0-1.2-.2-1.6-.4z"/><path d="m394.5 311.4-.1-.7c-.3.5-.9.9-1.8.9-1.2 0-1.8-.8-1.8-1.7 0-1.4 1.2-2.2 3.5-2.2v-.1c0-.5-.1-1.3-1.3-1.3-.5 0-1.1.2-1.5.4l-.2-.7c.5-.3 1.2-.5 1.9-.5 1.8 0 2.2 1.2 2.2 2.4v2.2c0 .5 0 1 .1 1.4h-1zm-.2-3c-1.2 0-2.5.2-2.5 1.3 0 .7.5 1 1 1 .8 0 1.2-.5 1.4-1 0-.1.1-.2.1-.3z"/><path d="m397.1 311.4v-5h-.8v-.8h.8v-.3c0-.8.2-1.6.7-2 .4-.4.9-.5 1.4-.5.4 0 .7.1.9.2l-.1.8c-.2-.1-.4-.1-.7-.1-.9 0-1.1.8-1.1 1.7v.3h1.4v.8h-1.4v5h-1.1z"/><path d="m401 308.7c0 1.4.9 2 2 2 .8 0 1.2-.1 1.6-.3l.2.8c-.4.2-1 .4-1.9.4-1.8 0-2.9-1.2-2.9-2.9 0-1.8 1-3.1 2.7-3.1 1.9 0 2.4 1.7 2.4 2.7v.5h-4.1zm3.1-.8c0-.7-.3-1.7-1.5-1.7-1.1 0-1.5 1-1.6 1.7z"/><path d="m409.2 307.8v.8h-3v-.8z"/><path d="m411.6 304c0 .4-.3.6-.7.6s-.6-.3-.6-.6c0-.4.3-.7.7-.7.3 0 .6.3.6.7zm-1.2 7.4v-5.8h1.1v5.8z"/><path d="m413.2 307.2c0-.6 0-1.1 0-1.6h.9l.1 1c.3-.6 1-1.1 1.9-1.1.8 0 2.1.5 2.1 2.5v3.5h-1.1v-3.5c0-.9-.3-1.7-1.3-1.7-.7 0-1.2.5-1.4 1.1 0 .1-.1.3-.1.5v3.5h-1.1z"/><path d="m419.9 302.9h1.1v8.5h-1.1z"/><path d="m423.9 304c0 .4-.3.6-.7.6s-.6-.3-.6-.6c0-.4.3-.7.7-.7.3 0 .6.3.6.7zm-1.2 7.4v-5.8h1.1v5.8z"/><path d="m425.5 307.2c0-.6 0-1.1 0-1.6h.9l.1 1c.3-.6 1-1.1 1.9-1.1.8 0 2.1.5 2.1 2.5v3.5h-1.1v-3.5c0-.9-.3-1.7-1.3-1.7-.7 0-1.2.5-1.4 1.1 0 .1-.1.3-.1.5v3.5h-1.1z"/><path d="m432.8 308.7c0 1.4.9 2 2 2 .8 0 1.2-.1 1.6-.3l.2.8c-.4.2-1 .4-1.9.4-1.8 0-2.9-1.2-2.9-2.9 0-1.8 1-3.1 2.7-3.1 1.9 0 2.4 1.7 2.4 2.7v.5h-4.1zm3.1-.8c0-.7-.3-1.7-1.5-1.7-1.1 0-1.5 1-1.6 1.7z"/><path d="m439 303.2-.2 2.9h-.6l-.2-2.9z"/><path d="m375.4 317.6-.2 2.9h-.6l-.2-2.9z"/><path d="m381.7 324.2v1.6h-.9l-.1-.9c-.3.5-.9 1.1-1.9 1.1-.9 0-2-.5-2-2.5v-3.5h1.1v3.2c0 1.1.3 1.8 1.3 1.8.7 0 1.2-.5 1.4-1 .1-.2.1-.3.1-.5v-3.5h1.1v4.2z"/><path d="m383.4 321.6c0-.6 0-1.1 0-1.6h.9l.1 1c.3-.6 1-1.1 1.9-1.1.8 0 2.1.5 2.1 2.5v3.5h-1.1v-3.3c0-.9-.3-1.7-1.3-1.7-.7 0-1.2.5-1.4 1.1 0 .1-.1.3-.1.5v3.5h-1.1z"/><path d="m390 324.7c.3.2.9.4 1.4.4.8 0 1.1-.4 1.1-.9s-.3-.8-1.1-1.1c-1-.4-1.5-.9-1.5-1.6 0-.9.8-1.7 2-1.7.6 0 1.1.2 1.4.4l-.3.8c-.2-.1-.6-.3-1.2-.3s-1 .4-1 .8c0 .5.3.7 1.1 1 1 .4 1.5.9 1.5 1.8 0 1-.8 1.7-2.2 1.7-.6 0-1.2-.2-1.6-.4z"/><path d="m398.1 325.8-.1-.7c-.3.5-.9.9-1.8.9-1.2 0-1.8-.8-1.8-1.7 0-1.4 1.2-2.2 3.5-2.2v-.1c0-.5-.1-1.3-1.3-1.3-.5 0-1.1.2-1.5.4l-.2-.7c.5-.3 1.2-.5 1.9-.5 1.8 0 2.2 1.2 2.2 2.4v2.2c0 .5 0 1 .1 1.4h-1zm-.2-3c-1.2 0-2.5.2-2.5 1.3 0 .7.5 1 1 1 .8 0 1.2-.5 1.4-1 0-.1.1-.2.1-.3z"/><path d="m400.7 325.8v-5h-.8v-.8h.8v-.3c0-.8.2-1.6.7-2 .4-.4.9-.5 1.4-.5.4 0 .7.1.9.2l-.1.8c-.2-.1-.4-.1-.7-.1-.9 0-1.1.8-1.1 1.7v.3h1.4v.8h-1.4v5h-1.1z"/><path d="m404.6 323.1c0 1.4.9 2 2 2 .8 0 1.2-.1 1.6-.3l.2.8c-.4.2-1 .4-1.9.4-1.8 0-2.9-1.2-2.9-2.9s1-3.1 2.7-3.1c1.9 0 2.4 1.7 2.4 2.7v.5h-4.1zm3.1-.8c0-.7-.3-1.7-1.5-1.7-1.1 0-1.5 1-1.6 1.7z"/><path d="m412.8 322.2v.8h-3v-.8z"/><path d="m414.8 323.1c0 1.4.9 2 2 2 .8 0 1.2-.1 1.6-.3l.2.8c-.4.2-1 .4-1.9.4-1.8 0-2.9-1.2-2.9-2.9s1-3.1 2.7-3.1c1.9 0 2.4 1.7 2.4 2.7v.5h-4.1zm3.1-.8c0-.7-.3-1.7-1.5-1.7-1.1 0-1.5 1-1.6 1.7z"/><path d="m420.7 320 1.1 3.3c.2.5.3 1 .5 1.5.1-.5.3-1 .5-1.5l1.1-3.3h1.1l-2.3 5.8h-1l-2.2-5.8z"/><path d="m429.2 325.8-.1-.7c-.3.5-.9.9-1.8.9-1.2 0-1.8-.8-1.8-1.7 0-1.4 1.2-2.2 3.5-2.2v-.1c0-.5-.1-1.3-1.3-1.3-.5 0-1.1.2-1.5.4l-.2-.7c.5-.3 1.2-.5 1.9-.5 1.8 0 2.2 1.2 2.2 2.4v2.2c0 .5 0 1 .1 1.4h-1zm-.2-3c-1.2 0-2.5.2-2.5 1.3 0 .7.5 1 1 1 .8 0 1.2-.5 1.4-1 0-.1.1-.2.1-.3z"/><path d="m431.8 317.3h1.1v8.5h-1.1z"/><path d="m435.4 317.6-.2 2.9h-.6l-.2-2.9z"/><path d="m391.3 332-.2 2.9h-.6l-.2-2.9z"/><path d="m392.7 336c0-.6 0-1.1 0-1.6h.9l.1 1c.3-.6 1-1.1 1.9-1.1.8 0 2.1.5 2.1 2.5v3.5h-1.1v-3.3c0-.9-.3-1.7-1.3-1.7-.7 0-1.2.5-1.4 1.1 0 .1-.1.3-.1.5v3.5h-1.1z"/><path d="m404.7 337.2c0 2.1-1.5 3.1-2.9 3.1-1.6 0-2.8-1.2-2.8-3 0-1.9 1.3-3.1 2.9-3.1 1.6.1 2.8 1.3 2.8 3zm-4.6.1c0 1.3.7 2.2 1.8 2.2 1 0 1.8-.9 1.8-2.3 0-1-.5-2.2-1.7-2.2-1.4 0-1.9 1.2-1.9 2.3z"/><path d="m406 336c0-.6 0-1.1 0-1.6h.9l.1 1c.3-.6 1-1.1 1.9-1.1.8 0 2.1.5 2.1 2.5v3.5h-1.1v-3.3c0-.9-.3-1.7-1.3-1.7-.7 0-1.2.5-1.4 1.1 0 .1-.1.3-.1.5v3.5h-1.1z"/><path d="m413.2 337.5c0 1.4.9 2 2 2 .8 0 1.2-.1 1.6-.3l.2.8c-.4.2-1 .4-1.9.4-1.8 0-2.9-1.2-2.9-2.9s1-3.1 2.7-3.1c1.9 0 2.4 1.7 2.4 2.7v.5h-4.1zm3.1-.8c0-.7-.3-1.7-1.5-1.7-1.1 0-1.5 1-1.6 1.7z"/><path d="m419.4 332-.2 2.9h-.6l-.2-2.9z"/><path d="m346.3 346.4-.2 2.9h-.6l-.2-2.9z"/><path d="m347.8 350.4c0-.6 0-1.1 0-1.6h.9l.1 1c.3-.6 1-1.1 1.9-1.1.8 0 2.1.5 2.1 2.5v3.5h-1.1v-3.3c0-.9-.3-1.7-1.3-1.7-.7 0-1.2.5-1.4 1.1 0 .1-.1.3-.1.5v3.5h-1.1z"/><path d="m359.7 351.6c0 2.1-1.5 3.1-2.9 3.1-1.6 0-2.8-1.2-2.8-3 0-1.9 1.3-3.1 2.9-3.1 1.7.1 2.8 1.3 2.8 3zm-4.6.1c0 1.3.7 2.2 1.8 2.2 1 0 1.8-.9 1.8-2.3 0-1-.5-2.2-1.7-2.2-1.4 0-1.9 1.2-1.9 2.3z"/><path d="m361 350.4c0-.6 0-1.1 0-1.6h.9l.1 1c.3-.6 1-1.1 1.9-1.1.8 0 2.1.5 2.1 2.5v3.5h-1.1v-3.3c0-.9-.3-1.7-1.3-1.7-.7 0-1.2.5-1.4 1.1 0 .1-.1.3-.1.5v3.5h-1.1z"/><path d="m371.8 354.4c-.3.1-.9.3-1.7.3-1.8 0-2.9-1.2-2.9-3s1.2-3.1 3.1-3.1c.6 0 1.2.2 1.5.3l-.2.8c-.3-.1-.6-.3-1.2-.3-1.3 0-2.1 1-2.1 2.2 0 1.3.9 2.2 2 2.2.6 0 1-.2 1.3-.3z"/><path d="m373.6 351.9c0 1.4.9 2 2 2 .8 0 1.2-.1 1.6-.3l.2.8c-.4.2-1 .4-1.9.4-1.8 0-2.9-1.2-2.9-2.9s1-3.1 2.7-3.1c1.9 0 2.4 1.7 2.4 2.7v.5h-4.1zm3.1-.8c0-.7-.3-1.7-1.5-1.7-1.1 0-1.5 1-1.6 1.7z"/><path d="m381.8 351v.8h-3v-.8z"/><path d="m383 351.1 5.6-2.9v.8l-4.7 2.4 4.7 2.4v.8l-5.6-2.9z"/><path d="m390.1 354.6c0-.4 0-1 0-1.5v-7h1v3.6c.4-.6 1-1.1 2-1.1 1.4 0 2.5 1.2 2.4 3 0 2.1-1.3 3.1-2.6 3.1-.8 0-1.5-.3-1.9-1.1v1zm1.1-2.3v.4c.2.7.8 1.2 1.6 1.2 1.1 0 1.8-.9 1.8-2.2 0-1.2-.6-2.2-1.7-2.2-.7 0-1.4.5-1.6 1.3 0 .1-.1.3-.1.4z"/><path d="m400.2 354.6-.1-.7c-.3.5-.9.9-1.8.9-1.2 0-1.8-.8-1.8-1.7 0-1.4 1.2-2.2 3.5-2.2v-.1c0-.5-.1-1.3-1.3-1.3-.5 0-1.1.2-1.5.4l-.2-.7c.5-.3 1.2-.5 1.9-.5 1.8 0 2.2 1.2 2.2 2.4v2.2c0 .5 0 1 .1 1.4h-1zm-.1-3c-1.2 0-2.5.2-2.5 1.3 0 .7.5 1 1 1 .8 0 1.2-.5 1.4-1 0-.1.1-.2.1-.3z"/><path d="m402.7 353.5c.3.2.9.4 1.4.4.8 0 1.1-.4 1.1-.9s-.3-.8-1.1-1.1c-1-.4-1.5-.9-1.5-1.6 0-.9.8-1.7 2-1.7.6 0 1.1.2 1.4.4l-.3.8c-.2-.1-.6-.3-1.2-.3s-1 .4-1 .8c0 .5.3.7 1.1 1 1 .4 1.5.9 1.5 1.8 0 1-.8 1.7-2.2 1.7-.6 0-1.2-.2-1.6-.4z"/><path d="m408.1 351.9c0 1.4.9 2 2 2 .8 0 1.2-.1 1.6-.3l.2.8c-.4.2-1 .4-1.9.4-1.8 0-2.9-1.2-2.9-2.9s1-3.1 2.7-3.1c1.9 0 2.4 1.7 2.4 2.7v.5h-4.1zm3.1-.8c0-.7-.3-1.7-1.5-1.7-1.1 0-1.5 1-1.6 1.7z"/><path d="m417.7 347.5c-.2 0-.5 0-.8 0-1.7.3-2.5 1.5-2.7 2.8.4-.5 1-.9 1.9-.9 1.4 0 2.4 1 2.4 2.5 0 1.4-1 2.7-2.6 2.7-1.7 0-2.8-1.3-2.8-3.3 0-1.5.6-2.7 1.3-3.5.6-.6 1.5-1 2.5-1.2.3 0 .6-.1.8-.1zm-.3 4.5c0-1.1-.6-1.8-1.6-1.8-.6 0-1.2.4-1.5 1-.1.1-.1.3-.1.5 0 1.3.6 2.2 1.7 2.2.9 0 1.5-.7 1.5-1.9z"/><path d="m422.7 354.6v-2.1h-3.7v-.7l3.5-5h1.1v4.8h1.1v.8h-1.1v2.1h-.9zm0-3v-2.6c0-.4 0-.8 0-1.2-.2.5-.4.8-.6 1.2l-1.9 2.7h2.5z"/><path d="m428.3 351v.8h-3v-.8z"/><path d="m429.9 348.8 1.1 3.3c.2.5.3 1 .5 1.5.1-.5.3-1 .5-1.5l1.1-3.3h1.1l-2.3 5.8h-1l-2.2-5.8z"/><path d="m438.4 354.6-.1-.7c-.3.5-.9.9-1.8.9-1.2 0-1.8-.8-1.8-1.7 0-1.4 1.2-2.2 3.5-2.2v-.1c0-.5-.1-1.3-1.3-1.3-.5 0-1.1.2-1.5.4l-.2-.7c.5-.3 1.2-.5 1.9-.5 1.8 0 2.2 1.2 2.2 2.4v2.2c0 .5 0 1 .1 1.4h-1zm-.1-3c-1.2 0-2.5.2-2.5 1.3 0 .7.5 1 1 1 .8 0 1.2-.5 1.4-1 0-.1.1-.2.1-.3z"/><path d="m441 346.1h1.1v8.5h-1.1z"/><path d="m448.7 353v1.6h-.9l-.1-.9c-.3.5-.9 1.1-1.9 1.1-.9 0-2-.5-2-2.5v-3.4h1.1v3.2c0 1.1.3 1.8 1.3 1.8.7 0 1.2-.5 1.4-1 .1-.2.1-.3.1-.5v-3.6h1.1v4.2z"/><path d="m451 351.9c0 1.4.9 2 2 2 .8 0 1.2-.1 1.6-.3l.2.8c-.4.2-1 .4-1.9.4-1.8 0-2.9-1.2-2.9-2.9s1-3.1 2.7-3.1c1.9 0 2.4 1.7 2.4 2.7v.5h-4.1zm3.1-.8c0-.7-.3-1.7-1.5-1.7-1.1 0-1.5 1-1.6 1.7z"/><path d="m461.9 351.7-5.6 2.9v-.8l4.7-2.4-4.7-2.4v-.8l5.6 2.9z"/><path d="m464.4 346.4-.2 2.9h-.6l-.2-2.9z"/><path d="m316.5 360.8-.2 2.9h-.6l-.2-2.9z"/><path d="m317.9 365.5 5.6-2.9v.8l-4.7 2.4 4.7 2.4v.8l-5.6-2.9z"/><path d="m325.1 360.5h1.1v3.6c.2-.3.4-.6.8-.7.3-.2.7-.3 1.1-.3.8 0 2 .5 2 2.5v3.5h-1.1v-3.3c0-.9-.3-1.7-1.3-1.7-.7 0-1.2.5-1.4 1.1-.1.1-.1.3-.1.5v3.5h-1.1z"/><path d="m335 369-.1-.7c-.3.5-.9.9-1.8.9-1.2 0-1.8-.8-1.8-1.7 0-1.4 1.2-2.2 3.5-2.2v-.1c0-.5-.1-1.3-1.3-1.3-.5 0-1.1.2-1.5.4l-.2-.7c.5-.3 1.2-.5 1.9-.5 1.8 0 2.2 1.2 2.2 2.4v2.2c0 .5 0 1 .1 1.4h-1zm-.1-3c-1.2 0-2.5.2-2.5 1.3 0 .7.5 1 1 1 .8 0 1.2-.5 1.4-1 0-.1.1-.2.1-.3z"/><path d="m337.4 367.9c.3.2.9.4 1.4.4.8 0 1.1-.4 1.1-.9s-.3-.8-1.1-1.1c-1-.4-1.5-.9-1.5-1.6 0-.9.8-1.7 2-1.7.6 0 1.1.2 1.4.4l-.3.8c-.2-.1-.6-.3-1.2-.3s-1 .4-1 .8c0 .5.3.7 1.1 1 1 .4 1.5.9 1.5 1.8 0 1-.8 1.7-2.2 1.7-.6 0-1.2-.2-1.6-.4z"/><path d="m342.3 360.5h1.1v3.6c.2-.3.4-.6.8-.7.3-.2.7-.3 1.1-.3.8 0 2 .5 2 2.5v3.5h-1.1v-3.3c0-.9-.3-1.7-1.3-1.7-.7 0-1.2.5-1.4 1.1-.1.1-.1.3-.1.5v3.5h-1.1z"/><path d="m351.4 365.4v.8h-3v-.8z"/><path d="m355.9 369-.1-.7c-.3.5-.9.9-1.8.9-1.2 0-1.8-.8-1.8-1.7 0-1.4 1.2-2.2 3.5-2.2v-.1c0-.5-.1-1.3-1.3-1.3-.5 0-1.1.2-1.5.4l-.2-.7c.5-.3 1.2-.5 1.9-.5 1.8 0 2.2 1.2 2.2 2.4v2.2c0 .5 0 1 .1 1.4h-1zm-.2-3c-1.2 0-2.5.2-2.5 1.3 0 .7.5 1 1 1 .8 0 1.2-.5 1.4-1 0-.1.1-.2.1-.3z"/><path d="m358.5 360.5h1.1v8.5h-1.1z"/><path d="m366.3 363.2v1.6 3.4c0 1.3-.3 2.1-.8 2.7-.6.5-1.4.7-2.1.7s-1.5-.2-1.9-.5l.3-.8c.4.2 1 .5 1.7.5 1.1 0 1.9-.6 1.9-2v-.8c-.3.5-.9 1-1.8 1-1.4 0-2.5-1.2-2.5-2.8 0-2 1.3-3.1 2.6-3.1 1 0 1.6.5 1.8 1v-.9zm-1.1 2.3c0-.2 0-.3-.1-.5-.2-.6-.7-1.1-1.5-1.1-1 0-1.7.9-1.7 2.2 0 1.1.6 2.1 1.7 2.1.6 0 1.2-.4 1.5-1.1.1-.2.1-.4.1-.6z"/><path d="m373.3 366c0 2.1-1.5 3.1-2.9 3.1-1.6 0-2.8-1.2-2.8-3 0-1.9 1.3-3.1 2.9-3.1 1.6.1 2.8 1.3 2.8 3zm-4.6.1c0 1.3.7 2.2 1.8 2.2 1 0 1.8-.9 1.8-2.3 0-1-.5-2.2-1.7-2.2-1.4 0-1.9 1.2-1.9 2.3z"/><path d="m374.6 365c0-.7 0-1.3 0-1.8h.9v1.1c.3-.8.9-1.3 1.6-1.3h.3v1c-.1 0-.2 0-.4 0-.7 0-1.3.6-1.4 1.4v.5 3.1h-1z"/><path d="m379.7 361.6c0 .4-.3.6-.7.6s-.6-.3-.6-.6c0-.4.3-.7.7-.7s.6.3.6.7zm-1.1 7.4v-5.8h1.1v5.8z"/><path d="m382.6 361.5v1.7h1.5v.8h-1.5v3.1c0 .7.2 1.1.8 1.1.3 0 .5 0 .6-.1v.8c-.2.1-.5.1-.9.1-.5 0-.9-.2-1.1-.4-.3-.3-.4-.8-.4-1.5v-3.1h-.9v-.8h.9v-1.4z"/><path d="m385.3 360.5h1.1v3.6c.2-.3.4-.6.8-.7.3-.2.7-.3 1.1-.3.8 0 2 .5 2 2.5v3.5h-1.1v-3.3c0-.9-.3-1.7-1.3-1.7-.7 0-1.2.5-1.4 1.1-.1.1-.1.3-.1.5v3.5h-1.1z"/><path d="m392 364.8c0-.6 0-1.1 0-1.6h.9v.9c.3-.6.9-1.1 1.8-1.1.8 0 1.4.5 1.6 1.2.2-.3.4-.6.6-.8.3-.3.7-.4 1.3-.4.8 0 1.9.5 1.9 2.5v3.4h-1v-3.3c0-1.1-.4-1.8-1.3-1.8-.6 0-1.1.4-1.2 1 0 .1-.1.3-.1.5v3.6h-1v-3.5c0-.9-.4-1.6-1.2-1.6-.7 0-1.1.5-1.3 1.1-.1.2-.1.3-.1.5v3.5h-1v-4.1z"/><path d="m407.5 366.1-5.6 2.9v-.8l4.7-2.4-4.7-2.4v-.8l5.6 2.9z"/><path d="m411.6 365.4v.8h-3v-.8z"/><path d="m412.8 365.5 5.6-2.9v.8l-4.7 2.4 4.7 2.4v.8l-5.6-2.9z"/><path d="m420 369c0-.4 0-1 0-1.5v-7h1v3.6c.4-.6 1-1.1 2-1.1 1.4 0 2.5 1.2 2.4 3 0 2.1-1.3 3.1-2.6 3.1-.8 0-1.5-.3-1.9-1.1v1zm1-2.3v.4c.2.7.8 1.2 1.6 1.2 1.1 0 1.8-.9 1.8-2.2 0-1.2-.6-2.2-1.7-2.2-.7 0-1.4.5-1.6 1.3 0 .1-.1.3-.1.4z"/><path d="m430 369-.1-.7c-.3.5-.9.9-1.8.9-1.2 0-1.8-.8-1.8-1.7 0-1.4 1.2-2.2 3.5-2.2v-.1c0-.5-.1-1.3-1.3-1.3-.5 0-1.1.2-1.5.4l-.2-.7c.5-.3 1.2-.5 1.9-.5 1.8 0 2.2 1.2 2.2 2.4v2.2c0 .5 0 1 .1 1.4h-1zm-.1-3c-1.2 0-2.5.2-2.5 1.3 0 .7.5 1 1 1 .8 0 1.2-.5 1.4-1 0-.1.1-.2.1-.3z"/><path d="m432.5 367.9c.3.2.9.4 1.4.4.8 0 1.1-.4 1.1-.9s-.3-.8-1.1-1.1c-1-.4-1.5-.9-1.5-1.6 0-.9.8-1.7 2-1.7.6 0 1.1.2 1.4.4l-.3.8c-.2-.1-.6-.3-1.2-.3s-1 .4-1 .8c0 .5.3.7 1.1 1 1 .4 1.5.9 1.5 1.8 0 1-.8 1.7-2.2 1.7-.6 0-1.2-.2-1.6-.4z"/><path d="m438 366.3c0 1.4.9 2 2 2 .8 0 1.2-.1 1.6-.3l.2.8c-.4.2-1 .4-1.9.4-1.8 0-2.9-1.2-2.9-2.9s1-3.1 2.7-3.1c1.9 0 2.4 1.7 2.4 2.7v.5h-4.1zm3-.8c0-.7-.3-1.7-1.5-1.7-1.1 0-1.5 1-1.6 1.7z"/><path d="m447.5 361.9c-.2 0-.5 0-.8 0-1.7.3-2.5 1.5-2.7 2.8.4-.5 1-.9 1.9-.9 1.4 0 2.4 1 2.4 2.5 0 1.4-1 2.7-2.6 2.7-1.7 0-2.8-1.3-2.8-3.3 0-1.5.6-2.7 1.3-3.5.6-.6 1.5-1 2.5-1.2.3 0 .6-.1.8-.1zm-.3 4.5c0-1.1-.6-1.8-1.6-1.8-.6 0-1.2.4-1.5 1-.1.1-.1.3-.1.5 0 1.3.6 2.2 1.7 2.2.9 0 1.5-.7 1.5-1.9z"/><path d="m452.5 369v-2.1h-3.6v-.7l3.5-5h1.1v4.8h1.1v.8h-1.1v2.1h-1zm0-3v-2.6c0-.4 0-.8 0-1.2-.2.5-.4.8-.6 1.2l-1.9 2.7h2.5z"/><path d="m458.1 365.4v.8h-3v-.8z"/><path d="m459.7 363.2 1.1 3.3c.2.5.3 1 .5 1.5.1-.5.3-1 .5-1.5l1.1-3.3h1.1l-2.3 5.8h-1l-2.2-5.8z"/><path d="m468.2 369-.1-.7c-.3.5-.9.9-1.8.9-1.2 0-1.8-.8-1.8-1.7 0-1.4 1.2-2.2 3.5-2.2v-.1c0-.5-.1-1.3-1.3-1.3-.5 0-1.1.2-1.5.4l-.2-.7c.5-.3 1.2-.5 1.9-.5 1.8 0 2.2 1.2 2.2 2.4v2.2c0 .5 0 1 .1 1.4h-1zm-.1-3c-1.2 0-2.5.2-2.5 1.3 0 .7.5 1 1 1 .8 0 1.2-.5 1.4-1 0-.1.1-.2.1-.3z"/><path d="m470.8 360.5h1.1v8.5h-1.1z"/><path d="m478.5 367.4v1.6h-.9l-.1-.9c-.3.5-.9 1.1-1.9 1.1-.9 0-2-.5-2-2.5v-3.4h1.1v3.2c0 1.1.3 1.8 1.3 1.8.7 0 1.2-.5 1.4-1 .1-.2.1-.3.1-.5v-3.6h1.1v4.2z"/><path d="m480.9 366.3c0 1.4.9 2 2 2 .8 0 1.2-.1 1.6-.3l.2.8c-.4.2-1 .4-1.9.4-1.8 0-2.9-1.2-2.9-2.9s1-3.1 2.7-3.1c1.9 0 2.4 1.7 2.4 2.7v.5h-4.1zm3-.8c0-.7-.3-1.7-1.5-1.7-1.1 0-1.5 1-1.6 1.7z"/><path d="m491.8 366.1-5.6 2.9v-.8l4.7-2.4-4.7-2.4v-.8l5.6 2.9z"/><path d="m494.2 360.8-.2 2.9h-.6l-.2-2.9z"/><path d="m368.3 375.2-.2 2.9h-.6l-.2-2.9z"/><path d="m369.6 382.3c.3.2.9.4 1.4.4.8 0 1.1-.4 1.1-.9s-.3-.8-1.1-1.1c-1-.4-1.5-.9-1.5-1.6 0-.9.8-1.7 2-1.7.6 0 1.1.2 1.4.4l-.3.8c-.2-.1-.6-.3-1.2-.3s-1 .4-1 .8c0 .5.3.7 1.1 1 1 .4 1.5.9 1.5 1.8 0 1-.8 1.7-2.2 1.7-.6 0-1.2-.2-1.6-.4z"/><path d="m375.8 375.9v1.7h1.5v.8h-1.5v3.1c0 .7.2 1.1.8 1.1.3 0 .5 0 .6-.1v.8c-.2.1-.5.1-.9.1-.5 0-.9-.2-1.1-.4-.3-.3-.4-.8-.4-1.5v-3.2h-.9v-.8h.9v-1.4z"/><path d="m378.5 379.4c0-.7 0-1.3 0-1.8h.9v1.1c.3-.8.9-1.3 1.6-1.3h.3v1c-.1 0-.2 0-.4 0-.7 0-1.3.6-1.4 1.4v.5 3.1h-1z"/><path d="m383.6 376c0 .4-.3.6-.7.6s-.6-.3-.6-.6c0-.4.3-.7.7-.7s.6.3.6.7zm-1.1 7.4v-5.8h1.1v5.8z"/><path d="m389.4 383.2c-.3.1-.9.3-1.7.3-1.8 0-2.9-1.2-2.9-3s1.2-3.1 3.1-3.1c.6 0 1.2.2 1.5.3l-.2.8c-.3-.1-.6-.3-1.2-.3-1.3 0-2.1 1-2.1 2.2 0 1.3.9 2.2 2 2.2.6 0 1-.2 1.3-.3z"/><path d="m392.1 375.9v1.7h1.5v.8h-1.5v3.1c0 .7.2 1.1.8 1.1.3 0 .5 0 .6-.1v.8c-.2.1-.5.1-.9.1-.5 0-.9-.2-1.1-.4-.3-.3-.4-.8-.4-1.5v-3.2h-.9v-.8h.9v-1.4z"/><path d="m397.2 379.8v.8h-3v-.8z"/><path d="m403.6 374.9v7 1.5h-.9v-1c-.3.6-1 1.1-2 1.1-1.4 0-2.5-1.2-2.5-3 0-1.9 1.2-3.1 2.6-3.1.9 0 1.5.4 1.8.9v-3.5h1zm-1 5c0-.1 0-.3 0-.4-.2-.7-.7-1.2-1.5-1.2-1.1 0-1.7 1-1.7 2.2s.6 2.1 1.7 2.1c.7 0 1.4-.5 1.5-1.3 0-.1 0-.3 0-.5z"/><path d="m405.8 377.6 1.3 3.4c.1.4.3.8.4 1.2.1-.3.2-.8.4-1.2l1.2-3.4h1.1l-1.6 4.1c-.8 2-1.3 3-2 3.6-.5.5-1 .6-1.3.7l-.3-.9c.3-.1.6-.3.9-.5s.6-.6.9-1.2c0-.1.1-.2.1-.3s0-.1-.1-.3l-2.1-5.3h1.1z"/><path d="m411 379.2c0-.6 0-1.1 0-1.6h.9l.1 1c.3-.6 1-1.1 1.9-1.1.8 0 2.1.5 2.1 2.5v3.5h-1.1v-3.5c0-.9-.3-1.7-1.3-1.7-.7 0-1.2.5-1.4 1.1 0 .1-.1.3-.1.5v3.5h-1.1z"/><path d="m420.9 383.4-.1-.7c-.3.5-.9.9-1.8.9-1.2 0-1.8-.8-1.8-1.7 0-1.4 1.2-2.2 3.5-2.2v-.1c0-.5-.1-1.3-1.3-1.3-.5 0-1.1.2-1.5.4l-.2-.7c.5-.3 1.2-.5 1.9-.5 1.8 0 2.2 1.2 2.2 2.4v2.2c0 .5 0 1 .1 1.4h-1zm-.2-3c-1.2 0-2.5.2-2.5 1.3 0 .7.5 1 1 1 .8 0 1.2-.5 1.4-1 0-.1.1-.2.1-.3z"/><path d="m423.5 379.2c0-.6 0-1.1 0-1.6h.9v.9c.3-.6.9-1.1 1.8-1.1.8 0 1.4.5 1.6 1.2.2-.3.4-.6.6-.8.3-.3.7-.4 1.3-.4.8 0 1.9.5 1.9 2.5v3.4h-1v-3.3c0-1.1-.4-1.8-1.3-1.8-.6 0-1.1.4-1.2 1 0 .1-.1.3-.1.5v3.6h-1v-3.5c0-.9-.4-1.6-1.2-1.6-.7 0-1.1.5-1.3 1.1-.1.2-.1.3-.1.5v3.5h-1v-4.1z"/><path d="m434.7 376c0 .4-.3.6-.7.6s-.6-.3-.6-.6c0-.4.3-.7.7-.7.3 0 .6.3.6.7zm-1.2 7.4v-5.8h1.1v5.8z"/><path d="m440.4 383.2c-.3.1-.9.3-1.7.3-1.8 0-2.9-1.2-2.9-3s1.2-3.1 3.1-3.1c.6 0 1.2.2 1.5.3l-.2.8c-.3-.1-.6-.3-1.2-.3-1.3 0-2.1 1-2.1 2.2 0 1.3.9 2.2 2 2.2.6 0 1-.2 1.3-.3z"/><path d="m442.4 375.2-.2 2.9h-.6l-.2-2.9z"/></g><path d="m564.3 324.1-2.1-8.1h1.1l1 4.1c.2 1 .5 2 .6 2.8.1-.8.4-1.8.7-2.8l1.1-4.1h1.1l1 4.1c.2 1 .4 1.9.6 2.8.2-.9.4-1.8.6-2.8l1.1-4.1h1.1l-2.3 8.1h-1.1l-1-4.2c-.3-1-.4-1.8-.5-2.6-.1.8-.3 1.6-.6 2.6l-1.2 4.2z"/><path d="m573.2 321.4c0 1.4.9 2 2 2 .8 0 1.2-.1 1.6-.3l.2.8c-.4.2-1 .4-1.9.4-1.8 0-2.9-1.2-2.9-2.9s1-3.1 2.7-3.1c1.9 0 2.4 1.7 2.4 2.7v.5h-4.1zm3.1-.8c0-.7-.3-1.7-1.5-1.7-1.1 0-1.5 1-1.6 1.7z"/><path d="m578.6 324.1c0-.4 0-1 0-1.5v-7h1v3.6c.4-.6 1-1.1 2-1.1 1.4 0 2.5 1.2 2.4 3 0 2.1-1.3 3.1-2.6 3.1-.8 0-1.5-.3-1.9-1.1v1zm1.1-2.4v.4c.2.7.8 1.2 1.6 1.2 1.1 0 1.8-.9 1.8-2.2 0-1.2-.6-2.2-1.7-2.2-.7 0-1.4.5-1.6 1.3 0 .1-.1.3-.1.4z"/><path d="m587.9 322.8c.5.3 1.2.5 1.9.5 1.1 0 1.7-.6 1.7-1.4s-.4-1.2-1.5-1.6c-1.3-.5-2.1-1.2-2.1-2.3 0-1.3 1-2.2 2.6-2.2.8 0 1.4.2 1.8.4l-.3.9c-.3-.1-.8-.4-1.5-.4-1.1 0-1.5.7-1.5 1.2 0 .8.5 1.1 1.6 1.6 1.4.5 2.1 1.2 2.1 2.4s-.9 2.3-2.8 2.3c-.8 0-1.6-.2-2.1-.5z"/><path d="m594.6 321.4c0 1.4.9 2 2 2 .8 0 1.2-.1 1.6-.3l.2.8c-.4.2-1 .4-1.9.4-1.8 0-2.9-1.2-2.9-2.9s1-3.1 2.7-3.1c1.9 0 2.4 1.7 2.4 2.7v.5h-4.1zm3.1-.8c0-.7-.3-1.7-1.5-1.7-1.1 0-1.5 1-1.6 1.7z"/><path d="m600 320.1c0-.7 0-1.3 0-1.8h.9v1.1c.3-.8.9-1.3 1.6-1.3h.3v1c-.1 0-.2 0-.4 0-.7 0-1.3.6-1.4 1.4v.5 3.1h-1z"/><path d="m604.7 318.3 1.1 3.3c.2.5.3 1 .5 1.5.1-.5.3-1 .5-1.5l1.1-3.3h1.1l-2.3 5.8h-1l-2.2-5.8z"/><path d="m610.5 321.4c0 1.4.9 2 2 2 .8 0 1.2-.1 1.6-.3l.2.8c-.4.2-1 .4-1.9.4-1.8 0-2.9-1.2-2.9-2.9s1-3.1 2.7-3.1c1.9 0 2.4 1.7 2.4 2.7v.5h-4.1zm3.1-.8c0-.7-.3-1.7-1.5-1.7-1.1 0-1.5 1-1.6 1.7z"/><path d="m615.9 320.1c0-.7 0-1.3 0-1.8h.9v1.1c.3-.8.9-1.3 1.6-1.3h.3v1c-.1 0-.2 0-.4 0-.7 0-1.3.6-1.4 1.4v.5 3.1h-1z"/><path d="m117 45.3h43.7" fill="none" stroke="#000" stroke-miterlimit="10" stroke-width=".8849"/><path d="m160.7 45.3-8.8-5.1v10.2l8.8-5.1-8.8-5.1v10.2z"/><path d="m528 317.7-8.8-5.1v10.2l8.8-5.1-8.8-5.1v10.2z"/><path d="m117 119.2h43.7" fill="none" stroke="#000" stroke-miterlimit="10" stroke-width=".8849"/><path d="m160.7 119.2-8.8-5v10.1l8.8-5.1-8.8-5v10.1z"/><path d="m117 168.7h43.7" fill="none" stroke="#000" stroke-miterlimit="10" stroke-width=".8849"/><path d="m160.7 168.7-8.8-5.1v10.2l8.8-5.1-8.8-5.1v10.2z"/><path d="m117 217h43.7" fill="none" stroke="#000" stroke-miterlimit="10" stroke-width=".8849"/><path d="m160.7 217-8.8-5.1v10.2l8.8-5.1-8.8-5.1v10.2z"/><path d="m117 265.3h43.7" fill="none" stroke="#000" stroke-miterlimit="10" stroke-width=".8849"/><path d="m160.7 265.3-8.8-5.1v10.2l8.8-5.1-8.8-5.1v10.2z"/><path d="m117 318.8h43.7" fill="none" stroke="#000" stroke-miterlimit="10" stroke-width=".8849"/><path d="m160.7 318.8-8.8-5.1v10.1l8.8-5-8.8-5.1v10.1z"/><path d="m117 388.9h43.7" fill="none" stroke="#000" stroke-miterlimit="10" stroke-width=".8849"/><path d="m160.7 388.9-8.8-5.1v10.2l8.8-5.1-8.8-5.1v10.2z"/><path d="m117 471.7h43.7" fill="none" stroke="#000" stroke-miterlimit="10" stroke-width=".8849"/><path d="m160.7 471.7-8.8-5.1v10.2l8.8-5.1-8.8-5.1v10.2z"/><path d="m117 540.4h43.7" fill="none" stroke="#000" stroke-miterlimit="10" stroke-width=".8849"/><path d="m160.7 540.4-8.8-5.1v10.2l8.8-5.1-8.8-5.1v10.2z"/><path d="m117 587.4h43.7" fill="none" stroke="#000" stroke-miterlimit="10" stroke-width=".8849"/><path d="m160.7 587.4-8.8-5.1v10.2l8.8-5.1-8.8-5.1v10.2z"/><ellipse cx="588" cy="240.7" fill="none" rx="60" ry="31.7" stroke="#000" stroke-miterlimit="10"/><path d="m528 240.7v119.2" fill="none" stroke="#000" stroke-miterlimit="10"/><path d="m648 240.7v123.3" fill="none" stroke="#000" stroke-miterlimit="10"/><path d="m528 359.9c0 23.9 26.9 43.2 60 43.2s60-19.4 60-43.2" fill="none" stroke="#000" stroke-miterlimit="10" stroke-width=".9938"/><path d="m275.3 45.3h129.7" fill="none" stroke="#000" stroke-miterlimit="10" stroke-width=".8849"/><path d="m275.3 119.2h129.7" fill="none" stroke="#000" stroke-miterlimit="10" stroke-width=".8849"/><path d="m275.3 168.7h129.7" fill="none" stroke="#000" stroke-miterlimit="10" stroke-width=".8849"/><path d="m275.3 217h129.5" fill="none" stroke="#000" stroke-miterlimit="10" stroke-width=".8849"/><path d="m405 45.3v195.4" fill="none" stroke="#000" stroke-miterlimit="10" stroke-width=".8849"/><path d="m499 317.7h29" fill="none" stroke="#000" stroke-miterlimit="10" stroke-width=".8849"/><path d="m275.3 265.3h35.7" fill="none" stroke="#000" stroke-miterlimit="10" stroke-width=".8849"/><path d="m275.3 318.8h35.7" fill="none" stroke="#000" stroke-miterlimit="10" stroke-width=".8849"/><path d="m275.3 388.9h35.7" fill="none" stroke="#000" stroke-miterlimit="10" stroke-width=".8849"/><path d="m275.3 588.7h129.7" fill="none" stroke="#000" stroke-miterlimit="10" stroke-width=".8849"/><path d="m275.3 540.4h129.5" fill="none" stroke="#000" stroke-miterlimit="10" stroke-width=".8849"/><path d="m275.3 471.7h129.5" fill="none" stroke="#000" stroke-miterlimit="10" stroke-width=".8849"/><path d="m275.3 646.4h129.7" fill="none" stroke="#000" stroke-miterlimit="10" stroke-width=".8849"/><path d="m405 399.4v247" fill="none" stroke="#000" stroke-miterlimit="10" stroke-width=".8849"/></svg>